<svg xmlns="http://www.w3.org/2000/svg" xmlns:xlink="http://www.w3.org/1999/xlink" width="9" height="11" viewBox="0 0 9 11"><defs><clipPath id="a"><rect width="9" height="11" transform="translate(23 3.381)" fill="#fff"/></clipPath></defs><g transform="translate(-23 -3.381)" clip-path="url(#a)"><g transform="translate(23.65 3.381)"><path d="M4.721,5.737,4.354,2.95A.164.164,0,0,1,4.5,2.767l.477-.055a.164.164,0,0,1,.183.147l.367,2.878ZM11.541,2.6a.164.164,0,0,0-.147-.183l-.477-.073a.164.164,0,0,0-.183.147l-.422,3.245h.825ZM6.866,7.259V2.877A.164.164,0,0,0,6.7,2.712h-.5a.164.164,0,0,0-.165.165V6.232a1.669,1.669,0,0,0,.825,1.027Zm2.732-.5V3.1a.164.164,0,0,0-.165-.165h-.5a.164.164,0,0,0-.165.165V7.369a1.6,1.6,0,0,0,.825-.6Zm-1.43.678v-5.3A.164.164,0,0,0,8,1.979h-.5a.164.164,0,0,0-.165.165v5.28a.971.971,0,0,0,.238.018ZM10.239,6.1a1.955,1.955,0,0,1-1.925,1.7H7.6A1.927,1.927,0,0,1,5.674,6.1H4.115L4.94,12.74a.278.278,0,0,0,.275.238h5.5a.293.293,0,0,0,.275-.238L11.815,6.1Z" transform="translate(-4.115 -1.979)" fill="#fca311"/></g></g></svg>