<svg xmlns="http://www.w3.org/2000/svg" xmlns:xlink="http://www.w3.org/1999/xlink" width="9" height="11" viewBox="0 0 9 11"><defs><clipPath id="a"><rect width="9" height="11" transform="translate(29.754 4)" fill="#fff"/></clipPath></defs><g transform="translate(-29.754 -4)" clip-path="url(#a)"><g transform="translate(33.467 2.877) rotate(45)"><path d="M.745.041.074.513A.168.168,0,0,0,.006.622.158.158,0,0,0,.045.743l.219.25A.485.485,0,0,1,.377.945C.453.921.572.894.67.872A7.615,7.615,0,0,1,1.579.733L1,.07A.193.193,0,0,0,.745.041Z" transform="translate(1.478 2.379)" fill="#fca311"/><path d="M.916.055a.2.2,0,0,0-.257,0L.057.6a.152.152,0,0,0,0,.231l1.051.951c.071,0,.141,0,.21.008a5.512,5.512,0,0,1-.1-.712,3.619,3.619,0,0,1,0-.747Z" transform="translate(2.651 1.304)" fill="#fca311"/><path d="M.553,3.8a1.272,1.272,0,0,0,.853.384.932.932,0,0,0,.255-.032.467.467,0,0,1-.164-.47.46.46,0,0,1,.014-.047l-.27-.308a.473.473,0,0,1-.117-.361.488.488,0,0,1,.2-.326L2,2.161a.556.556,0,0,1,.3-.1.426.426,0,0,1,0-.047.457.457,0,0,1,.157-.347l.6-.542A.557.557,0,0,1,3.436.983a.573.573,0,0,1,.385.147l.191.173a.542.542,0,0,1,.245-.139.6.6,0,0,1,.154-.018.585.585,0,0,1,.4.16l.035.035a.619.619,0,0,0,.036-.214V1.112A1.15,1.15,0,0,0,4.641.448.889.889,0,0,0,4.073.071a1.2,1.2,0,0,0-.308,0,1.105,1.105,0,0,1-.19.007A.853.853,0,0,1,3.467.056,1.408,1.408,0,0,0,3.3.027a1.121,1.121,0,0,0-.88.43L2.4.478a5.482,5.482,0,0,1-.812.708.957.957,0,0,1-.338.078,1.016,1.016,0,0,0-.559.179.943.943,0,0,0-.269.541c-.044.191-.076.3-.2.371a.382.382,0,0,0-.19.309A1.473,1.473,0,0,0,.537,3.782Z" transform="translate(0 0)" fill="#fca311"/><path d="M5.265,4.629a.8.8,0,0,0,.539-.2l.07-.063a.776.776,0,0,1-.113-.083A12.374,12.374,0,0,1,2.712.421l0,0S2.613.264,2.5.06A5.134,5.134,0,0,0,1.385.031,7.381,7.381,0,0,0,.4.174C.23.21.129.239.126.24A.164.164,0,0,0,.007.359.155.155,0,0,0,.063.515L4.746,4.441a.811.811,0,0,0,.519.189Z" transform="translate(1.843 3.396)" fill="#fca311"/><path d="M.34.055A.2.2,0,0,0,.155.008.166.166,0,0,0,.03.136,3.088,3.088,0,0,0,.021.888a4.852,4.852,0,0,0,.071.525c.1.02.282.164.557.743a.006.006,0,0,1,0,0,12.039,12.039,0,0,0,3,3.817.612.612,0,0,0,.118.079l.895-.808a.639.639,0,0,0,.015-.956Z" transform="translate(4.206 1.471)" fill="#fca311"/></g></g></svg>