<svg xmlns="http://www.w3.org/2000/svg" xmlns:xlink="http://www.w3.org/1999/xlink" width="240" height="273.595" viewBox="0 0 240 273.595"><defs><clipPath id="a"><rect width="240" height="273.595" transform="translate(93 165)" fill="#fff" stroke="#707070" stroke-width="1"/></clipPath></defs><g transform="translate(-93 -165)" clip-path="url(#a)"><g transform="translate(78.892 172.597)"><path d="M254.108,258.394c0,.075-53.729.139-119.995.139s-120.005-.064-120.005-.139,53.718-.139,120.005-.139S254.108,258.314,254.108,258.394Z" fill="#263238"/><rect width="104.905" height="207.739" rx="13.593" transform="translate(137.643 15.787)" fill="#455a64"/><rect width="204.435" height="101.6" rx="11.925" transform="translate(240.896 17.445) rotate(90)" fill="#263238"/><path d="M182.564,23.989a1.169,1.169,0,1,1,0-2.333h15.02a1.169,1.169,0,0,1,0,2.333Z" fill="#455a64"/><path d="M174.518,23.989a1.169,1.169,0,1,1,1.169-1.169A1.169,1.169,0,0,1,174.518,23.989Z" fill="#455a64"/><path d="M178.814,23.989a1.169,1.169,0,1,1,1.164-1.169A1.169,1.169,0,0,1,178.814,23.989Z" fill="#455a64"/><path d="M205.679,23.989a1.169,1.169,0,1,1,1.164-1.169A1.169,1.169,0,0,1,205.679,23.989Z" fill="#455a64"/><path d="M201.382,23.989a1.169,1.169,0,1,1,1.169-1.169A1.169,1.169,0,0,1,201.382,23.989Z" fill="#455a64"/><path d="M229.518,18.62h-14.73a5.246,5.246,0,0,0-5.032,3.755l-.252.858a5.611,5.611,0,0,1-5.364,4.05H176.079a5.616,5.616,0,0,1-5.391-4.05l-.247-.858A5.246,5.246,0,0,0,165.4,18.62H152.041A10.38,10.38,0,0,0,141.661,29V209.134a9.763,9.763,0,0,0,9.763,9.763H229.7a8.835,8.835,0,0,0,8.84-8.835V27.637a9.023,9.023,0,0,0-9.017-9.017Z" fill="#fff"/><path d="M243.122,60.939h.118V84.815h-.118a.574.574,0,0,1-.574-.574V61.513a.574.574,0,0,1,.574-.574Z" transform="translate(485.783 145.754) rotate(180)" fill="#455a64"/><path d="M137.5,75.637h.139V90.754H137.5a.574.574,0,0,1-.574-.574V76.232a.574.574,0,0,1,.574-.6Z" fill="#455a64"/><path d="M137.5,55.9h.139V71.018H137.5a.574.574,0,0,1-.574-.574V56.5a.574.574,0,0,1,.574-.6Z" fill="#455a64"/><path d="M137.541,41.08h.107v7.027h-.107a.51.51,0,0,1-.51-.51V41.59a.51.51,0,0,1,.51-.51Z" fill="#455a64"/><rect width="0.719" height="1.008" transform="translate(215.018 25.599)" fill="#263238"/><rect width="0.719" height="1.459" transform="translate(216.188 25.148)" fill="#263238"/><rect width="0.719" height="1.797" transform="translate(217.363 24.815)" fill="#263238"/><rect width="0.719" height="2.451" transform="translate(218.537 24.161)" fill="#263238"/><path d="M229.894,26.661h-3.616a.263.263,0,0,1-.263-.258v-1.8a.263.263,0,0,1,.258-.263h3.621a.1.1,0,0,1,.048,0,.064.064,0,0,1,0,.048v.59h.386a.07.07,0,0,1,.07.064v.869a.064.064,0,0,1-.07.064h-.386v.6a.064.064,0,0,1-.048.086Zm-.064-2.183h-3.557a.123.123,0,0,0-.123.129v1.8a.123.123,0,0,0,.129.123h3.551v-.59a.064.064,0,0,1,.064-.064h.386v-.735h-.386a.064.064,0,0,1-.064-.07Z" fill="#263238"/><path d="M226.444,26.232V24.772h3.09v1.459Z" fill="#263238"/><path d="M222.705,26.521a.268.268,0,1,0-.263.268.263.263,0,0,0,.263-.268Z" fill="#263238"/><path d="M221.547,25.888l.338.333a.826.826,0,0,1,.569-.231.815.815,0,0,1,.563.231l.338-.333a1.277,1.277,0,0,0-1.808,0Z" fill="#263238"/><path d="M222.443,24.762a2.017,2.017,0,0,0-1.432.6l.338.333a1.561,1.561,0,0,1,2.194,0l.338-.333a2.017,2.017,0,0,0-1.438-.6Z" fill="#263238"/><path d="M220.474,24.8l.338.338a2.323,2.323,0,0,1,3.288,0l.338-.338a2.806,2.806,0,0,0-3.964,0Z" fill="#263238"/><path d="M181.54,39.2v1.175h2.06v.831h-2.06v1.609h-1.03V38.366h3.363v.826Z" fill="#263238"/><path d="M185.069,42.652a1.722,1.722,0,0,1-.676-.622,1.845,1.845,0,0,1,0-1.824,1.722,1.722,0,0,1,.676-.622,2.194,2.194,0,0,1,1.937,0,1.69,1.69,0,0,1,.671.649,1.845,1.845,0,0,1,0,1.824,1.69,1.69,0,0,1-.665.622,2.146,2.146,0,0,1-1.936,0Zm1.609-.842a1.073,1.073,0,0,0,0-1.384.815.815,0,0,0-.622-.257.842.842,0,0,0-.633.257,1.073,1.073,0,0,0,0,1.384.842.842,0,0,0,.633.257.815.815,0,0,0,.622-.257Z" fill="#263238"/><path d="M189.237,42.652a1.706,1.706,0,0,1-.671-.622,1.845,1.845,0,0,1,0-1.824,1.706,1.706,0,0,1,.671-.622,2.071,2.071,0,0,1,.971-.225,2.044,2.044,0,0,1,.971.225,1.69,1.69,0,0,1,.665.649,1.845,1.845,0,0,1,0,1.824,1.69,1.69,0,0,1-.665.622,1.985,1.985,0,0,1-.971.231,2.012,2.012,0,0,1-.971-.257Zm1.609-.842a1.073,1.073,0,0,0,0-1.384.821.821,0,0,0-.628-.257.837.837,0,0,0-.628.257,1.073,1.073,0,0,0,0,1.384.837.837,0,0,0,.628.257.821.821,0,0,0,.617-.257Z" fill="#263238"/><path d="M196.232,38.087v4.721h-.944v-.392a1.325,1.325,0,0,1-1.073.445,1.781,1.781,0,0,1-.874-.22,1.572,1.572,0,0,1-.612-.617,2.022,2.022,0,0,1,0-1.856,1.572,1.572,0,0,1,.612-.617,1.776,1.776,0,0,1,.874-.215,1.282,1.282,0,0,1,1.025.413V38.087Zm-1.218,3.7a1.073,1.073,0,0,0,0-1.384.9.9,0,0,0-1.255,0,1.073,1.073,0,0,0,0,1.384.9.9,0,0,0,1.255,0Z" fill="#263238"/><rect width="86.612" height="22.359" transform="translate(146.419 155.136)" fill="#e0e0e0"/><path d="M153.157,165.3H151.73v-.837h3.884v.837h-1.427v3.616h-1.03Z" fill="#263238"/><path d="M157.008,168.692a2.21,2.21,0,0,1-.869-.821,2.274,2.274,0,0,1-.316-1.18,2.248,2.248,0,0,1,.316-1.18,2.183,2.183,0,0,1,.869-.826,2.752,2.752,0,0,1,2.5,0,2.3,2.3,0,0,1,.869,3.186,2.248,2.248,0,0,1-.869.821A2.752,2.752,0,0,1,157.008,168.692Zm1.963-.756a1.266,1.266,0,0,0,.5-.51,1.609,1.609,0,0,0,0-1.475,1.255,1.255,0,0,0-.5-.5,1.486,1.486,0,0,0-1.427,0,1.325,1.325,0,0,0-.5.5,1.609,1.609,0,0,0,0,1.475,1.341,1.341,0,0,0,.5.51A1.529,1.529,0,0,0,158.972,167.936Z" fill="#263238"/><path d="M162.33,165.3h-1.4v-.837h3.878v.837h-1.427v3.616h-1.03Z" fill="#263238"/><path d="M168.054,167.962h-2.071l-.392.955h-1.073l1.985-4.452h1.019l1.99,4.452H168.44Zm-.327-.783-.708-1.706-.724,1.706Z" fill="#263238"/><path d="M169.99,164.465h1.035v3.61h2.242v.842H170Z" fill="#263238"/><path d="M173.8,166.5a.606.606,0,0,1-.177-.445.579.579,0,0,1,.177-.44.627.627,0,0,1,.44-.172.611.611,0,0,1,.44.172.579.579,0,0,1,.177.44.606.606,0,0,1-.177.445.6.6,0,0,1-.44.177A.611.611,0,0,1,173.8,166.5Zm0,2.285a.606.606,0,0,1-.177-.445.579.579,0,0,1,.177-.44.628.628,0,0,1,.44-.172.612.612,0,0,1,.44.172.579.579,0,0,1,.177.44.606.606,0,0,1-.177.445.6.6,0,0,1-.44.177.612.612,0,0,1-.44-.177Z" fill="#263238"/><path d="M217.169,168.166a1.84,1.84,0,0,1-1.073.461v.713h-.665v-.692a3.53,3.53,0,0,1-.9-.166,2.215,2.215,0,0,1-.687-.343l.349-.778a2.274,2.274,0,0,0,.569.3,2.559,2.559,0,0,0,.665.156v-1.073a4.419,4.419,0,0,1-.762-.241,1.3,1.3,0,0,1-.536-.392,1.019,1.019,0,0,1-.215-.681,1.223,1.223,0,0,1,.386-.907,1.824,1.824,0,0,1,1.11-.461v-.708h.638v.7a2.741,2.741,0,0,1,1.287.386l-.3.783a2.521,2.521,0,0,0-.971-.333v1.073a4.333,4.333,0,0,1,.751.231,1.287,1.287,0,0,1,.536.386,1.073,1.073,0,0,1,.209.681,1.207,1.207,0,0,1-.4.907Zm-2.087-2.521a1,1,0,0,0,.349.172v-.9a.687.687,0,0,0-.354.177.408.408,0,0,0-.118.29.333.333,0,0,0,.15.263Zm1.33,1.979a.37.37,0,0,0,.113-.274.327.327,0,0,0-.118-.263,1.154,1.154,0,0,0-.338-.177v.88a.735.735,0,0,0,.343-.166Z" fill="#263238"/><path d="M221.23,168.166a1.84,1.84,0,0,1-1.105.461v.713h-.633v-.692a3.486,3.486,0,0,1-.9-.166,2.313,2.313,0,0,1-.692-.343l.354-.778a2.334,2.334,0,0,0,.563.3,2.651,2.651,0,0,0,.671.156v-1.073a4.49,4.49,0,0,1-.767-.241,1.336,1.336,0,0,1-.536-.392,1.073,1.073,0,0,1-.209-.681,1.223,1.223,0,0,1,.386-.907,1.824,1.824,0,0,1,1.11-.461v-.708h.633v.7a2.746,2.746,0,0,1,1.293.386l-.316.783a2.516,2.516,0,0,0-.976-.333v1.073a4.259,4.259,0,0,1,.756.231,1.362,1.362,0,0,1,.536.386,1.073,1.073,0,0,1,.209.681,1.207,1.207,0,0,1-.381.907Zm-2.087-2.521a.96.96,0,0,0,.349.172v-.9a.729.729,0,0,0-.359.177.429.429,0,0,0-.113.29.316.316,0,0,0,.123.263Zm1.325,1.979a.359.359,0,0,0,.118-.274.343.343,0,0,0-.118-.263,1.191,1.191,0,0,0-.343-.177v.88a.708.708,0,0,0,.349-.166Z" fill="#263238"/><path d="M225.3,168.166a1.824,1.824,0,0,1-1.1.461v.713h-.638v-.692a3.529,3.529,0,0,1-.9-.166,2.28,2.28,0,0,1-.687-.343l.349-.778a2.377,2.377,0,0,0,.569.3,2.607,2.607,0,0,0,.665.156v-1.073a4.421,4.421,0,0,1-.762-.241,1.3,1.3,0,0,1-.536-.392,1.073,1.073,0,0,1-.209-.681,1.223,1.223,0,0,1,.386-.907,1.8,1.8,0,0,1,1.105-.461v-.708h.638v.7a2.763,2.763,0,0,1,1.293.386l-.316.783a2.548,2.548,0,0,0-.976-.333v1.073a4.56,4.56,0,0,1,.756.231,1.309,1.309,0,0,1,.536.386,1.073,1.073,0,0,1,.209.681,1.191,1.191,0,0,1-.386.907Zm-2.087-2.521a1,1,0,0,0,.349.172v-.9a.687.687,0,0,0-.354.177.429.429,0,0,0-.113.29.327.327,0,0,0,.1.263Zm1.33,1.979a.376.376,0,0,0,.118-.274.343.343,0,0,0-.118-.263,1.191,1.191,0,0,0-.343-.177v.88a.708.708,0,0,0,.327-.166Z" fill="#263238"/><path d="M233.472,48.9c0,.075-19.912.139-44.47.139s-44.47-.064-44.47-.139,19.907-.145,44.47-.145S233.472,48.815,233.472,48.9Z" fill="#263238"/><path d="M215.313,206.087h-50.5a10.546,10.546,0,0,1-10.546-10.546h0a10.552,10.552,0,0,1,10.546-10.552h50.5a10.552,10.552,0,0,1,10.552,10.552h0A10.552,10.552,0,0,1,215.313,206.087Z" fill="#fca311"/><path d="M178.385,198.41a2.269,2.269,0,0,1,0-4.007,2.607,2.607,0,0,1,1.25-.3,2.569,2.569,0,0,1,1.245.295,2.267,2.267,0,0,1,0,4.007,2.516,2.516,0,0,1-1.245.3A2.548,2.548,0,0,1,178.385,198.41Zm1.963-.756a1.341,1.341,0,0,0,.5-.51,1.449,1.449,0,0,0,.182-.735,1.47,1.47,0,0,0-.182-.74,1.362,1.362,0,0,0-.5-.5,1.486,1.486,0,0,0-1.427,0,1.363,1.363,0,0,0-.5.5,1.529,1.529,0,0,0-.182.74,1.507,1.507,0,0,0,.182.735,1.341,1.341,0,0,0,.5.51,1.486,1.486,0,0,0,1.427,0Z" fill="#fff"/><path d="M185.686,198.636l-.858-1.239h-.949v1.239h-1.03v-4.447h1.926a2.521,2.521,0,0,1,1.03.193,1.486,1.486,0,0,1,.907,1.422,1.454,1.454,0,0,1-.917,1.405l1,1.432Zm-.263-3.412a1.073,1.073,0,0,0-.7-.2h-.842v1.556h.842a1.073,1.073,0,0,0,.7-.2.714.714,0,0,0,.241-.574.7.7,0,0,0-.241-.574Z" fill="#fff"/><path d="M187.526,194.189h2.022a2.87,2.87,0,0,1,1.282.274,2.076,2.076,0,0,1,.864.783,2.355,2.355,0,0,1,0,2.339,2.028,2.028,0,0,1-.864.778,2.8,2.8,0,0,1-1.282.279h-2.022Zm1.969,3.6a1.5,1.5,0,0,0,1.073-.37,1.481,1.481,0,0,0,0-2.017,1.507,1.507,0,0,0-1.073-.376h-.939v2.763Z" fill="#fff"/><path d="M196.227,197.81v.826h-3.449v-4.447h3.369v.826H193.8v.966h2.071v.8H193.8v1.03Z" fill="#fff"/><path d="M199.886,198.636l-.869-1.228h-.949v1.239h-1.03v-4.458h1.926a2.521,2.521,0,0,1,1.03.193,1.529,1.529,0,0,1,0,2.827l1,1.432Zm-.263-3.412a1.073,1.073,0,0,0-.7-.2h-.842v1.556h.842a1.073,1.073,0,0,0,.7-.2.713.713,0,0,0,.241-.574.7.7,0,0,0-.241-.574Z" fill="#fff"/><rect width="30.067" height="29.456" transform="translate(145.861 52.635)" fill="#ebebeb"/><path d="M145.861,52.635h6.55l18.292-.043,62.87-.059h.134V82.117h0v.139h-.139l-87.734-.048h-.091v-.134c0-9.248.038-16.629.054-21.683v.075c0,5.053.032,12.4.054,21.629l-.1-.1,87.734-.043-.139.139h0V52.635l.139.134-62.763-.059-18.33-.043H146.2Z" fill="#263238"/><path d="M167.5,66.85l-.976,4.79,3.181-.07Z" fill="#fca311"/><g opacity="0.3"><path d="M167.5,66.85l-.976,4.79,3.181-.07Z"/></g><path d="M153.86,67.006l.976,4.79-3.181-.075Z" fill="#fca311"/><g opacity="0.3"><path d="M153.86,67.006l.976,4.79-3.181-.075Z"/></g><path d="M162,67.891h0a.4.4,0,0,1-.4-.381l-.461-11.222a.4.4,0,0,1,.4-.418h.536a.4.4,0,0,1,.4.4l-.1,11.222a.4.4,0,0,1-.381.4Z" fill="#844031"/><rect width="1.325" height="0.976" transform="translate(161.187 57.302)" fill="#fca311"/><path d="M162.915,67.934h0a.4.4,0,0,1-.241-.5l3.417-10.7a.4.4,0,0,1,.536-.257l.536.193a.4.4,0,0,1,.236.536l-3.943,10.5a.4.4,0,0,1-.542.22Z" fill="#844031"/><rect width="0.976" height="1.325" transform="translate(165.436 58.615) rotate(-69.92)" fill="#fca311"/><path d="M166.734,65.085a2.645,2.645,0,0,0-1.845-1.169,3.755,3.755,0,0,0-2.146.381,2.778,2.778,0,0,1-1.609.472,3.122,3.122,0,0,1-1.073-.6,3.755,3.755,0,0,0-2.859-.579,4.109,4.109,0,0,0-2.478,1.711,2.741,2.741,0,0,0-.483,2.258l12.671-.048a2.725,2.725,0,0,0-.177-2.425Z" fill="#fff"/><path d="M166.4,67.226a2.683,2.683,0,0,0,0-.622,2.307,2.307,0,0,0-.713-1.5,1.808,1.808,0,0,0-1.046-.456,2.929,2.929,0,0,0-1.314.182c-.445.15-.864.44-1.357.638a1.915,1.915,0,0,1-.8.145,2.146,2.146,0,0,1-.8-.22c-.51-.241-.939-.579-1.4-.815a2.682,2.682,0,0,0-1.422-.316,2.875,2.875,0,0,0-2.146,1.169,3.755,3.755,0,0,0-.671,1.55c-.038.2-.048.354-.059.461a.623.623,0,0,1,0,.161,2.645,2.645,0,0,1,.032-.628,3.664,3.664,0,0,1,.649-1.609,2.945,2.945,0,0,1,2.189-1.223,2.822,2.822,0,0,1,1.481.322c.472.241.9.574,1.395.81a1.759,1.759,0,0,0,1.518.075c.477-.193.9-.477,1.368-.633a3.025,3.025,0,0,1,1.357-.182,1.953,1.953,0,0,1,1.073.494,2.29,2.29,0,0,1,.7,1.55A1.7,1.7,0,0,1,166.4,67.226Z" fill="#263238"/><path d="M165.8,67.376a3.618,3.618,0,0,0,0-.536,1.7,1.7,0,0,0-.7-1.25,1.362,1.362,0,0,0-.955-.231,2.907,2.907,0,0,0-1.073.456,4.641,4.641,0,0,1-1.186.6,2.253,2.253,0,0,1-1.422-.139A17.247,17.247,0,0,0,158,65.144a2.146,2.146,0,0,0-2,.633,2.779,2.779,0,0,0-.681,1.3c-.075.343-.064.536-.08.536a2.257,2.257,0,0,1,.038-.536,2.682,2.682,0,0,1,.671-1.346,2.2,2.2,0,0,1,2.071-.681,16.1,16.1,0,0,1,2.489,1.132,2.189,2.189,0,0,0,1.352.134,4.6,4.6,0,0,0,1.159-.579,2.972,2.972,0,0,1,1.11-.461,1.4,1.4,0,0,1,1.014.257,1.733,1.733,0,0,1,.7,1.314A1.432,1.432,0,0,1,165.8,67.376Z" fill="#263238"/><path d="M165.012,67.381a.912.912,0,0,0-.07-.424.9.9,0,0,0-.322-.37.928.928,0,0,0-.638-.1c-.5.075-.949.536-1.609.756a3,3,0,0,1-2.146-.29,11.661,11.661,0,0,0-2-.853,2.049,2.049,0,0,0-1.674.22,1.727,1.727,0,0,0-.671.939,2.629,2.629,0,0,0-.064.429,1.106,1.106,0,0,1,0-.44,1.717,1.717,0,0,1,.671-.992,2.087,2.087,0,0,1,1.743-.252,10.766,10.766,0,0,1,2.012.848,2.94,2.94,0,0,0,2.071.3c.617-.209,1.073-.671,1.609-.735a.96.96,0,0,1,.681.118.923.923,0,0,1,.333.408.66.66,0,0,1,.048.327A.381.381,0,0,1,165.012,67.381Z" fill="#263238"/><path d="M153.838,66.963c0,.327,2.328,12.284,2.328,12.284l9.119-.15,2.2-12.247Z" fill="#fca311"/><path d="M153.838,66.963h1.025l2.865-.038,9.768-.107h.086l-.038.08L166.133,69.7q-.612,1.207-1.186,2.355v.027H156.4l-2.51-5.069,2.586,5.032-.038-.027h8.508l-.048.027,1.186-2.35c.483-.96.955-1.9,1.411-2.806l.054.08Z" fill="#263238"/><g opacity="0.3"><path d="M156.633,72.011l.231.5h8.277l2.135-5.23-2.382,4.731Z"/></g><path d="M162.539,77.042a22.268,22.268,0,0,1-3.219,0,24.491,24.491,0,0,1,3.219,0Z" fill="#fff"/><path d="M161.954,75.138a.892.892,0,0,0-.054-.252,1.019,1.019,0,1,0-1.346,1.2,1,1,0,0,0,.96-.134,1.035,1.035,0,0,0,.386-.536c.043-.156.043-.252.054-.252a.708.708,0,0,1,0,.263,1.073,1.073,0,0,1-1.422.778,1.1,1.1,0,0,1,0-2.081,1.073,1.073,0,0,1,1.041.172,1.03,1.03,0,0,1,.381.606.7.7,0,0,1,0,.241Z" fill="#fff"/><path d="M156.638,62.73a.37.37,0,0,0,.236-.236.536.536,0,0,0,0-.392,1.824,1.824,0,0,0-.3-.451,1.556,1.556,0,0,1,.209-2.146c.215-.2.477-.4.51-.692a1.035,1.035,0,0,0-.365-.767,2.924,2.924,0,0,1-.536-.687,1.808,1.808,0,0,1-.059-1.448,1.754,1.754,0,0,1,.606-.772,1.073,1.073,0,0,1,.322-.172,2.119,2.119,0,0,0-.3.2,1.781,1.781,0,0,0-.536.767,1.743,1.743,0,0,0,.075,1.373,3.084,3.084,0,0,0,.536.665,1.11,1.11,0,0,1,.4.848,1.352,1.352,0,0,1-.536.762,1.47,1.47,0,0,0-.225,2.017,1.8,1.8,0,0,1,.3.477.585.585,0,0,1,0,.429C156.831,62.763,156.638,62.763,156.638,62.73Z" fill="#263238"/><path d="M158.071,62.73a.37.37,0,0,0,.236-.236.536.536,0,0,0,0-.392,1.824,1.824,0,0,0-.3-.451,1.556,1.556,0,0,1,.209-2.146c.215-.2.477-.4.51-.692a1.035,1.035,0,0,0-.365-.767,2.924,2.924,0,0,1-.536-.687,1.808,1.808,0,0,1-.059-1.448,1.754,1.754,0,0,1,.606-.772,1.073,1.073,0,0,1,.322-.172,1.834,1.834,0,0,0-.831.971,1.722,1.722,0,0,0,.075,1.373,3.084,3.084,0,0,0,.536.665,1.11,1.11,0,0,1,.4.848,1.352,1.352,0,0,1-.536.762,1.491,1.491,0,0,0-.456.681,1.465,1.465,0,0,0,.231,1.336,1.8,1.8,0,0,1,.3.477.585.585,0,0,1,0,.429C158.248,62.763,158.055,62.763,158.071,62.73Z" fill="#263238"/><rect width="17.407" height="2.371" transform="translate(181.759 57.919)" fill="#fca311"/><rect width="45.913" height="1.518" transform="translate(181.759 63.766)" fill="#e0e0e0"/><rect width="45.913" height="1.518" transform="translate(181.759 66.807)" fill="#e0e0e0"/><path d="M215.469,75.771H214.6v.853h-.644v-.853h-.869v-.606h.869v-.848h.644v.848h.869Z" fill="#fca311"/><path d="M221.4,76.56v.654h-2.639v-.536l1.346-1.277a1.341,1.341,0,0,0,.29-.349.687.687,0,0,0,.075-.3.386.386,0,0,0-.145-.322.644.644,0,0,0-.413-.113.917.917,0,0,0-.413.091.762.762,0,0,0-.311.257l-.59-.375a1.336,1.336,0,0,1,.563-.477,1.851,1.851,0,0,1,.826-.172,1.792,1.792,0,0,1,.681.123,1.073,1.073,0,0,1,.451.359.907.907,0,0,1,.166.536,1.212,1.212,0,0,1-.123.536,1.957,1.957,0,0,1-.461.569l-.8.762Z" fill="#fca311"/><path d="M224.626,75.5h1.416v.628h-1.416Z" fill="#fca311"/><path d="M227.673,79.51v-.59c0-.4,0-.949-.027-1.647,0-1.438-.032-3.471-.054-5.976l.1.1-17.343.038.139-.139h0V79.5l-.134-.134,12.418.064,3.61.032H227.7a2.145,2.145,0,0,1-.311,0h-.944l-3.578.032-12.51.064h-.134V71.228h0l.139-.139,17.343.038h.1v.1c0,2.532-.038,4.587-.054,6.035,0,.687,0,1.234-.027,1.609v.418a.359.359,0,0,1-.054.22Z" fill="#263238"/><path d="M185.262,76.887a1.84,1.84,0,0,1-1.1.461v.713h-.638V77.37a3.487,3.487,0,0,1-.9-.166,2.216,2.216,0,0,1-.687-.343l.349-.778a2.334,2.334,0,0,0,.563.3,2.639,2.639,0,0,0,.671.15V75.46a4.291,4.291,0,0,1-.762-.241,1.32,1.32,0,0,1-.536-.392,1.073,1.073,0,0,1-.209-.681,1.223,1.223,0,0,1,.386-.907,1.824,1.824,0,0,1,1.11-.461V72.07h.638v.692a2.805,2.805,0,0,1,1.287.392l-.316.783a2.521,2.521,0,0,0-.971-.333v1.073a4.334,4.334,0,0,1,.751.231,1.325,1.325,0,0,1,.536.386,1.073,1.073,0,0,1,.209.681,1.207,1.207,0,0,1-.386.912Zm-2.087-2.521a.961.961,0,0,0,.349.172v-.9a.73.73,0,0,0-.359.177.429.429,0,0,0-.113.29.333.333,0,0,0,.123.263Zm1.325,1.979a.359.359,0,0,0,.118-.274.327.327,0,0,0-.118-.263,1.073,1.073,0,0,0-.338-.177v.88a.713.713,0,0,0,.338-.166Z" fill="#e0e0e0"/><path d="M190.074,76.887a1.84,1.84,0,0,1-1.105.461v.713h-.633V77.37a3.444,3.444,0,0,1-.9-.166,2.312,2.312,0,0,1-.692-.343l.354-.778a2.334,2.334,0,0,0,.536.3,2.639,2.639,0,0,0,.671.15V75.46a4.489,4.489,0,0,1-.767-.241,1.336,1.336,0,0,1-.536-.392,1.073,1.073,0,0,1-.209-.681,1.223,1.223,0,0,1,.386-.907,1.824,1.824,0,0,1,1.11-.461V72.07h.633v.692a2.806,2.806,0,0,1,1.293.392l-.317.783a2.516,2.516,0,0,0-.976-.333v1.073a4.26,4.26,0,0,1,.756.231,1.362,1.362,0,0,1,.536.386,1.073,1.073,0,0,1,.209.681A1.207,1.207,0,0,1,190.074,76.887Zm-2.087-2.521a.961.961,0,0,0,.349.172v-.9a.73.73,0,0,0-.359.177.429.429,0,0,0-.113.29.317.317,0,0,0,.123.263Zm1.325,1.979a.359.359,0,0,0,.118-.274.343.343,0,0,0-.118-.263,1.072,1.072,0,0,0-.343-.177v.88a.708.708,0,0,0,.343-.166Z" fill="#e0e0e0"/><path d="M175.95,82.364c-.08,0-.139-6.614-.139-14.773s.059-14.779.139-14.779.139,6.614.139,14.779S176.036,82.364,175.95,82.364Z" fill="#263238"/><rect width="30.067" height="29.456" transform="translate(145.861 85.132)" fill="#ebebeb"/><path d="M145.861,85.132h6.571l18.292-.038,62.87-.064h.134v29.584h0v.139h-.139l-87.734-.048h-.091v-.091c0-9.248.038-16.629.054-21.683V93c0,5.053.032,12.408.054,21.629l-.1-.091,87.734-.048-.139.139h0v-29.5l.139.134-62.763-.059-18.33-.038h-6.19Z" fill="#263238"/><rect width="17.407" height="2.371" transform="translate(181.759 90.416)" fill="#fca311"/><rect width="45.913" height="1.518" transform="translate(181.759 96.268)" fill="#e0e0e0"/><rect width="45.913" height="1.518" transform="translate(181.759 99.304)" fill="#e0e0e0"/><path d="M215.469,108.274H214.6v.848h-.644v-.848h-.869v-.612h.869v-.848h.644v.848h.869Z" fill="#fca311"/><path d="M220.141,106.214v3.5h-.81v-2.848h-.7v-.649Z" fill="#fca311"/><path d="M223.639,107.995h1.416v.628h-1.416Z" fill="#fca311"/><path d="M227.673,112.007v-.59c0-.4,0-.949-.027-1.647,0-1.438-.032-3.471-.054-5.976l.1.1-17.343.038.139-.139h0V112l-.134-.134,12.418.064,3.61.038H227.7a2.143,2.143,0,0,1-.311,0h-.944l-3.578.038-12.51.059h-.134V103.8h0l.139-.139,17.343.038h.1v.1c0,2.532-.038,4.586-.054,6.04,0,.687,0,1.228-.027,1.609v.418a.359.359,0,0,1-.054.139Z" fill="#263238"/><path d="M185.262,109.384a1.84,1.84,0,0,1-1.1.461v.713h-.638v-.692a3.272,3.272,0,0,1-.9-.166,2.215,2.215,0,0,1-.687-.343l.349-.778a2.146,2.146,0,0,0,.563.3,2.65,2.65,0,0,0,.671.156v-1.073a5.364,5.364,0,0,1-.762-.241,1.368,1.368,0,0,1-.536-.392,1.073,1.073,0,0,1-.209-.687,1.223,1.223,0,0,1,.386-.907,1.824,1.824,0,0,1,1.11-.461V104.6h.638v.7a2.806,2.806,0,0,1,1.287.386l-.316.783a2.521,2.521,0,0,0-.971-.333v1.073a4.859,4.859,0,0,1,.751.231,1.336,1.336,0,0,1,.536.392,1.041,1.041,0,0,1,.209.676,1.2,1.2,0,0,1-.386.874Zm-2.087-2.521a.88.88,0,0,0,.349.172v-.9a.692.692,0,0,0-.359.182.408.408,0,0,0-.113.29.322.322,0,0,0,.123.257Zm1.325,1.979a.359.359,0,0,0,.118-.274.327.327,0,0,0-.118-.263,1.229,1.229,0,0,0-.338-.177v.88a.665.665,0,0,0,.338-.166Z" fill="#e0e0e0"/><path d="M175.95,114.861c-.08,0-.139-6.614-.139-14.773s.07-14.795.139-14.795.139,6.614.139,14.779S176.036,114.861,175.95,114.861Z" fill="#263238"/><rect width="30.067" height="29.456" transform="translate(145.861 117.554)" fill="#ebebeb"/><path d="M145.861,117.554h6.571l18.292-.038,62.87-.064h.134v29.584h0v.139h-.139l-87.734-.048h-.091v-.145c0-9.243.038-16.629.054-21.683v.08c0,5.053.032,12.4.054,21.624l-.1-.091,87.734-.048-.139.139h0v-29.45l.139.134-62.763-.064-18.33-.038h-6.19Z" fill="#263238"/><rect width="17.407" height="2.371" transform="translate(181.759 122.838)" fill="#fca311"/><rect width="45.913" height="1.518" transform="translate(181.759 128.685)" fill="#e0e0e0"/><rect width="45.913" height="1.518" transform="translate(181.759 131.721)" fill="#e0e0e0"/><path d="M215.469,140.69H214.6v.848h-.644v-.848h-.869v-.606h.869v-.853h.644v.853h.869Z" fill="#fca311"/><path d="M220.141,138.636v3.519h-.81v-2.848h-.7v-.649Z" fill="#fca311"/><path d="M223.639,140.417h1.416v.622h-1.416Z" fill="#fca311"/><path d="M227.673,144.424v-.59c0-.4,0-.949-.027-1.647,0-1.432-.032-3.471-.054-5.97l.1.1-17.343.038.139-.139h0v8.2l-.134-.129,12.418.059,3.61.038H227.7a2.147,2.147,0,0,1-.311,0h-.944l-3.578.038-12.51.064h-.134v-8.229h0c-.032,0,.263-.268.139-.145l17.343.038h.1v.107c0,2.527-.038,4.586-.054,6.035,0,.687,0,1.228-.027,1.609v.413C227.683,144.381,227.678,144.429,227.673,144.424Z" fill="#263238"/><path d="M185.262,141.806a1.872,1.872,0,0,1-1.1.461v.713h-.638v-.7a3.273,3.273,0,0,1-.9-.166,2.1,2.1,0,0,1-.687-.343l.349-.772a2.322,2.322,0,0,0,.563.3,2.436,2.436,0,0,0,.671.156v-1.073a5.367,5.367,0,0,1-.762-.241,1.368,1.368,0,0,1-.536-.392,1.073,1.073,0,0,1-.209-.687,1.228,1.228,0,0,1,.386-.907,1.856,1.856,0,0,1,1.11-.461v-.7h.638v.692a2.806,2.806,0,0,1,1.287.386l-.316.783a2.511,2.511,0,0,0-.971-.327V139.6a4.861,4.861,0,0,1,.751.231,1.389,1.389,0,0,1,.536.392,1.041,1.041,0,0,1,.209.676A1.212,1.212,0,0,1,185.262,141.806Zm-2.087-2.527a.96.96,0,0,0,.349.177v-.907a.735.735,0,0,0-.359.182.408.408,0,0,0-.113.29.316.316,0,0,0,.123.257Zm1.325,1.979a.359.359,0,0,0,.118-.274.317.317,0,0,0-.118-.257.993.993,0,0,0-.338-.177v.874a.628.628,0,0,0,.338-.166Z" fill="#e0e0e0"/><path d="M189.634,141.806a1.856,1.856,0,0,1-1.1.461v.713H187.9v-.7a3.31,3.31,0,0,1-.9-.166,2.1,2.1,0,0,1-.687-.343l.349-.772a2.269,2.269,0,0,0,.569.3,2.4,2.4,0,0,0,.665.156v-1.073a5.607,5.607,0,0,1-.762-.241,1.352,1.352,0,0,1-.536-.392,1.073,1.073,0,0,1-.215-.687,1.228,1.228,0,0,1,.386-.907,1.856,1.856,0,0,1,1.11-.461v-.7h.638v.692a2.848,2.848,0,0,1,1.293.386l-.322.783a2.511,2.511,0,0,0-.971-.327V139.6a4.86,4.86,0,0,1,.751.231,1.352,1.352,0,0,1,.536.392,1.041,1.041,0,0,1,.209.676,1.212,1.212,0,0,1-.381.912Zm-2.087-2.527a1,1,0,0,0,.349.177v-.907a.692.692,0,0,0-.354.182.413.413,0,0,0-.118.29A.316.316,0,0,0,187.548,139.279Zm1.33,1.979a.37.37,0,0,0,.113-.274.317.317,0,0,0-.118-.257.944.944,0,0,0-.338-.177v.874a.644.644,0,0,0,.343-.166Z" fill="#e0e0e0"/><path d="M175.95,147.283c-.08,0-.139-6.62-.139-14.779s.059-14.773.139-14.773.139,6.614.139,14.773S176.036,147.283,175.95,147.283Z" fill="#263238"/><path d="M154.986,95.673l1.116,14.832a.9.9,0,0,0,.88.826l6.029.048a.9.9,0,0,0,.9-.815l1.223-14.725Z" fill="#fca311"/><g opacity="0.3"><path d="M164.6,102.164a85.409,85.409,0,0,1-9.2-.123l.29,4.463s5.364.917,8.583-.2Z"/></g><g opacity="0.3"><path d="M165.06,96.649a14.36,14.36,0,0,1-6.571.982c-2.918-.182-3.433-.89-3.433-.89l-.038-.665h10.09Z"/></g><path d="M165.554,95.04l.236,1.025s-1.153.955-5.869.89c-4.222-.054-5.246-.837-5.246-.837l-.327-.279.29-.966Z" fill="#e0e0e0"/><path d="M165.554,95.04h-3.16l-7.762-.107h.032l-.284.966v-.038l.343.29a2.3,2.3,0,0,0,.418.2l.22.075.225.07c.3.08.6.145.9.2a15.7,15.7,0,0,0,1.76.209,29.851,29.851,0,0,0,3.219.059,16.549,16.549,0,0,0,2.6-.268,8.045,8.045,0,0,0,1-.252,2.886,2.886,0,0,0,.74-.338h0l-.161-.756-.043-.2v-.07a.345.345,0,0,1,0,.064l.043.2c.043.172.107.429.182.756h0a2.929,2.929,0,0,1-.746.349,7.961,7.961,0,0,1-1,.263,16.6,16.6,0,0,1-2.6.279,29.894,29.894,0,0,1-3.219-.048,15.938,15.938,0,0,1-1.765-.209,9.174,9.174,0,0,1-.907-.2.891.891,0,0,1-.225-.064,1.536,1.536,0,0,1-.22-.08,2,2,0,0,1-.435-.2l-.349-.29h0c.1-.333.2-.66.29-.966h0l7.778.134,2.307.043h.831Z" fill="#263238"/><path d="M154.627,94.949c0,.494,2.425.848,5.461.928,2.071.054,5.1-.343,5.466-.864.29-.4-2.441-.907-5.456-.928S154.632,94.466,154.627,94.949Z" fill="#fff"/><path d="M154.627,94.949a.242.242,0,0,1,0-.059.316.316,0,0,1,.107-.134,1.99,1.99,0,0,1,.606-.263,13.342,13.342,0,0,1,2.4-.359,31.069,31.069,0,0,1,3.594-.043c.681.038,1.389.091,2.146.193.365.048.735.107,1.11.193a4.541,4.541,0,0,1,.536.15,1.962,1.962,0,0,1,.274.113l.064.038.064.043a.279.279,0,0,1,.054.059.134.134,0,0,1,0,.091.161.161,0,0,1-.038.08l-.059.059a1.008,1.008,0,0,1-.123.086,1.7,1.7,0,0,1-.268.118,4.325,4.325,0,0,1-.536.166c-.376.091-.746.156-1.11.215-.73.1-1.438.166-2.114.193a19.127,19.127,0,0,1-1.926,0c-.6,0-1.164-.064-1.674-.113a14.221,14.221,0,0,1-2.392-.37,1.813,1.813,0,0,1-.606-.263.284.284,0,0,1-.107-.134.225.225,0,0,1,0-.054v.054a.268.268,0,0,0,.107.123,1.963,1.963,0,0,0,.606.247,14.484,14.484,0,0,0,2.393.354c.51.043,1.073.075,1.668.1a19.041,19.041,0,0,0,1.92,0c.676-.032,1.384-.091,2.114-.2.359-.054.73-.123,1.1-.209a4.823,4.823,0,0,0,.536-.166,2.311,2.311,0,0,0,.263-.118.854.854,0,0,0,.113-.08.188.188,0,0,0,.075-.091.118.118,0,0,0-.054-.1l-.118-.075a2.249,2.249,0,0,0-.263-.107,4.918,4.918,0,0,0-.536-.145c-.37-.086-.74-.145-1.105-.193-.724-.1-1.432-.161-2.108-.193a31.414,31.414,0,0,0-3.594.027,13.189,13.189,0,0,0-2.392.338,2,2,0,0,0-.6.247.376.376,0,0,0-.113.123C154.632,94.949,154.632,94.949,154.627,94.949Z" fill="#263238"/><path d="M163.2,94.085l.129.574s-.649.59-3.3.5-2.945-.472-2.945-.472l-.075-.091.054-.612Z" fill="#e0e0e0"/><path d="M163.2,94.085h-1.781l-4.361-.059L157.1,94c0,.193-.038.4-.054.606h0l.059.064a.129.129,0,0,0,.054.054,1.684,1.684,0,0,0,.483.177c.166.043.338.075.5.1.333.048.665.08.987.107a17.312,17.312,0,0,0,1.786.054,8.625,8.625,0,0,0,1.454-.139,3.649,3.649,0,0,0,.536-.15,1.373,1.373,0,0,0,.408-.2h0l-.091-.429v-.107a.24.24,0,0,1,0-.043.166.166,0,0,1,0,.038l.027.107c.027.1.059.241.107.429h0a1.653,1.653,0,0,1-.413.215,4.365,4.365,0,0,1-.536.156,8.632,8.632,0,0,1-1.459.156c-.536,0-1.153,0-1.8-.048-.322-.027-.654-.059-.992-.107a2.2,2.2,0,0,1-.51-.1,1.7,1.7,0,0,1-.5-.188.263.263,0,0,1-.07-.064l-.054-.064h0l.054-.606v-.032h.032l4.377.08,1.293.032h.467Z" fill="#263238"/><path d="M157.062,94.037c0,.279,1.373.536,3.068.536s3.074-.209,3.074-.488-1.373-.536-3.068-.536S157.062,93.758,157.062,94.037Z" fill="#fff"/><path d="M157.062,94.037a.155.155,0,0,1,.064-.107.96.96,0,0,1,.338-.15,7.419,7.419,0,0,1,1.352-.209,17.58,17.58,0,0,1,2.028-.027,9.361,9.361,0,0,1,1.191.1c.2.032.413.064.628.113a2.307,2.307,0,0,1,.311.1.787.787,0,0,1,.15.075.2.2,0,0,1,.113.15.2.2,0,0,1-.113.156.628.628,0,0,1-.15.07,1.893,1.893,0,0,1-.316.091c-.209.048-.418.08-.628.107-.413.048-.815.07-1.2.08a15.91,15.91,0,0,1-2.022-.054,7.117,7.117,0,0,1-1.346-.22,1.154,1.154,0,0,1-.343-.156c-.07-.054-.064-.113-.059-.113a.139.139,0,0,0,.07.1,1.159,1.159,0,0,0,.338.139,7.939,7.939,0,0,0,1.346.2,18.419,18.419,0,0,0,2.017.038,10.372,10.372,0,0,0,1.191-.086,6.188,6.188,0,0,0,.617-.107,1.985,1.985,0,0,0,.306-.086l.145-.07c.043,0,.08-.059.08-.1s-.038-.07-.08-.1a1.126,1.126,0,0,0-.139-.07c-.1-.038-.2-.064-.306-.091-.209-.048-.413-.08-.622-.113-.408-.054-.8-.08-1.186-.1a18.957,18.957,0,0,0-2.017,0,7.692,7.692,0,0,0-1.346.182,1.207,1.207,0,0,0-.343.139.145.145,0,0,0-.07.113Z" fill="#263238"/><path d="M159.632,93.913l-.145-6.63.837-.038.139,6.673C160.136,93.908,159.932,94.021,159.632,93.913Z" fill="#fff"/><path d="M159.632,93.913a.9.9,0,0,0,.209.038,1.608,1.608,0,0,0,.263,0,1.84,1.84,0,0,1,.365-.027h0c-.038-1.207-.1-3.755-.161-6.646h0l.032.032-.837.032.032-.032c.038,1.861.07,3.519.091,4.71v1.942a.15.15,0,0,0,0-.032v-.472c0-.333,0-.81-.038-1.4-.032-1.2-.075-2.854-.118-4.726V87.3h.032l.831-.038h.038v.054c.064,2.918.107,5.445.123,6.652h0a2.438,2.438,0,0,0-.359,0,1.551,1.551,0,0,1-.263,0,.638.638,0,0,1-.156-.032Z" fill="#263238"/><path d="M160.066,87.288l.139,6.646-.311-.011-.188-6.63Z" fill="#455a64"/><path d="M159.321,93.844a7.808,7.808,0,0,0,.821.054c.451.005.826-.059.826-.038a.9.9,0,0,1-.236.059,3.552,3.552,0,0,1-.59.043,3.294,3.294,0,0,1-.585-.054.617.617,0,0,1-.236-.064Z" fill="#263238"/><path d="M165.275,96.327a1.609,1.609,0,0,1-.161-.494,2.576,2.576,0,0,1-.1-.5,1.609,1.609,0,0,1,.161.494,2.577,2.577,0,0,1,.1.5Z" fill="#263238"/><path d="M164.4,96.6a2.253,2.253,0,0,1-.166-.5,2.146,2.146,0,0,1-.1-.536,2.252,2.252,0,0,1,.166.5A1.867,1.867,0,0,1,164.4,96.6Z" fill="#263238"/><path d="M163.456,96.8a2.724,2.724,0,0,1-.145-.536,2.64,2.64,0,0,1-.08-.536,2.06,2.06,0,0,1,.145.536,1.974,1.974,0,0,1,.08.536Z" fill="#263238"/><path d="M162.346,96.923a4.6,4.6,0,0,1-.161-1.073,2.757,2.757,0,0,1,.113.536A2.58,2.58,0,0,1,162.346,96.923Z" fill="#263238"/><path d="M161.177,96.976a2.548,2.548,0,0,1,0-.536,2.381,2.381,0,0,1,.054-.536,2.549,2.549,0,0,1,0,.536,2.435,2.435,0,0,1-.054.536Z" fill="#263238"/><path d="M160.222,96.949a1.8,1.8,0,0,1,0-.536,2.146,2.146,0,0,1,.064-.536,1.792,1.792,0,0,1,0,.536,2.2,2.2,0,0,1-.064.536Z" fill="#263238"/><path d="M159.213,96.912a1.61,1.61,0,0,1,.032-.536,1.755,1.755,0,0,1,.123-.51,2.354,2.354,0,0,1-.059.536A2.683,2.683,0,0,1,159.213,96.912Z" fill="#263238"/><path d="M158.017,96.831a2.314,2.314,0,0,1,.113-.536,2.349,2.349,0,0,1,.177-.536,2.011,2.011,0,0,1-.113.536,2.351,2.351,0,0,1-.177.536Z" fill="#263238"/><path d="M156.928,96.751a2.558,2.558,0,0,1,.107-.536,2.022,2.022,0,0,1,.172-.536,2.482,2.482,0,0,1-.107.536,2.017,2.017,0,0,1-.172.536Z" fill="#263238"/><path d="M155.646,96.5a2.179,2.179,0,0,1,.134-.5,2.22,2.22,0,0,1,.2-.483A4.35,4.35,0,0,1,155.646,96.5Z" fill="#263238"/><path d="M154.686,96.145a1.749,1.749,0,0,1,.123-.451,1.448,1.448,0,0,1,.182-.429,1.7,1.7,0,0,1-.123.451A1.449,1.449,0,0,1,154.686,96.145Z" fill="#263238"/><path d="M162.357,130.718a4.774,4.774,0,0,0,.923-2.376,3.878,3.878,0,0,0-.365-2.253c-.027-.048-.054-.1-.107-.118a.215.215,0,0,0-.161,0,2.725,2.725,0,0,0-.29,4.721" fill="#455a64"/><path d="M164.025,128.744a3.61,3.61,0,0,0,1.556-1.143,2.886,2.886,0,0,0,.681-1.609.156.156,0,0,0,0-.118.166.166,0,0,0-.113-.048,2.06,2.06,0,0,0-2.1,2.891" fill="#455a64"/><path d="M163.741,130.659a1.116,1.116,0,0,0-.37-1.073,1.668,1.668,0,0,0-1.073-.381,1.77,1.77,0,0,0-.987.263,1.32,1.32,0,0,0-.59.826,1.3,1.3,0,0,0,.413,1.18,1.765,1.765,0,0,0,1.2.44,1.454,1.454,0,0,0,1-.37,1.261,1.261,0,0,0,.429-.89" fill="#fca311"/><path d="M167.523,131.737c1.486.263,2.961-1.384,3.315-2.451a.37.37,0,0,0,0-.343.354.354,0,0,0-.354-.08,3.449,3.449,0,0,0-1.947.949,3.535,3.535,0,0,0-1,1.926" fill="#455a64"/><path d="M169.2,130.922a1.121,1.121,0,0,0-.37-1.073,1.641,1.641,0,0,0-1.073-.381,1.792,1.792,0,0,0-.992.263,1.239,1.239,0,0,0-.177,2.006,1.733,1.733,0,0,0,1.2.435,1.438,1.438,0,0,0,1-.365,1.25,1.25,0,0,0,.435-.9" fill="#fca311"/><path d="M158.333,128.6a1.116,1.116,0,0,0-.37-1.073,1.7,1.7,0,0,0-1.073-.381,1.824,1.824,0,0,0-.987.268,1.228,1.228,0,0,0-.182,2,1.754,1.754,0,0,0,1.2.44,1.454,1.454,0,0,0,1-.37,1.261,1.261,0,0,0,.429-.89" fill="#fca311"/><path d="M161.531,131.244a4.785,4.785,0,0,0-1-2.344,3.83,3.83,0,0,0-1.835-1.357.225.225,0,0,0-.156,0,.193.193,0,0,0-.1.134,2.725,2.725,0,0,0,3.09,3.578" fill="#455a64"/><path d="M156.1,129.919a7.359,7.359,0,0,1-.783-1.073,2.494,2.494,0,0,1-.333-1.287.252.252,0,0,1,.07-.182.241.241,0,0,1,.193,0,4.114,4.114,0,0,1,3.186,3.578l.043.225a3.176,3.176,0,0,1-2.35.349,5.01,5.01,0,0,1-1.813-.713,2.6,2.6,0,0,1-1.1-1.566,3.514,3.514,0,0,1,2.886.671Z" fill="#455a64"/><path d="M165.366,128.61a5.311,5.311,0,0,1,2.629-1.336,3.755,3.755,0,0,1-3.3,4.179l-.059-.107a2.736,2.736,0,0,1,.735-2.736Z" fill="#455a64"/><path d="M170.5,130.675a16.307,16.307,0,0,1-2.977,6.019c-3.288,4.05-10.729,2.924-12.73-.247-.778-1.212-2.827-5.729-2.827-5.729Z" fill="#fff"/><path d="M170.5,130.675h-5.348l-13.207.059.048-.08c.6,1.314,1.239,2.682,1.92,4.05.177.354.359.7.536,1.073a5.364,5.364,0,0,0,.622.971,5.483,5.483,0,0,0,1.759,1.4,9.532,9.532,0,0,0,4.12,1.073,9.254,9.254,0,0,0,3.809-.628,6.914,6.914,0,0,0,2.714-1.958,16.092,16.092,0,0,0,2.425-4.259c.209-.536.349-.976.44-1.266l.129-.451a11.6,11.6,0,0,1-.536,1.733,16.093,16.093,0,0,1-2.4,4.291,6.974,6.974,0,0,1-2.747,2,9.248,9.248,0,0,1-3.846.644,9.538,9.538,0,0,1-4.168-1.073,5.6,5.6,0,0,1-1.792-1.427,5.97,5.97,0,0,1-.638-.987c-.182-.349-.365-.7-.536-1.073-.687-1.373-1.32-2.736-1.926-4.05l-.032-.08h18.62Z" fill="#263238"/><path d="M169.282,133.7c0,.032-3.557.054-7.945.054s-7.95,0-7.95-.054,3.557-.054,7.95-.054S169.282,133.668,169.282,133.7Z" fill="#fca311"/><path d="M169.6,133.245c0,.032-3.685.054-8.229.054s-8.229,0-8.229-.054,3.68-.059,8.229-.059S169.6,133.212,169.6,133.245Z" fill="#fca311"/><path d="M85.8,58.605h39.374a2.816,2.816,0,0,1,2.816,2.816V100.8a2.816,2.816,0,0,1-2.816,2.816H95.844c-2.682,2.274-7.805,6.856-7.805,6.856l-.381-6.856H85.8a2.816,2.816,0,0,1-2.811-2.816V61.422A2.816,2.816,0,0,1,85.8,58.605Z" fill="#fff"/><path d="M85.8,58.605a3.943,3.943,0,0,0-.9.172,2.843,2.843,0,0,0-1.759,1.872,7.74,7.74,0,0,0-.1,1.947c0,.73,0,1.518,0,2.371v5.869c0,4.393,0,9.72.032,15.814v13.6a4.473,4.473,0,0,0,.107,1.293,2.682,2.682,0,0,0,1.733,1.8,3.691,3.691,0,0,0,1.32.139h1.513v.113c.123,2.146.252,4.479.386,6.861l-.215-.091,7.848-6.84.038-.032h29.568a2.682,2.682,0,0,0,2.4-2.006,4.291,4.291,0,0,0,.086-1.121V62a8.763,8.763,0,0,0-.027-.928,2.64,2.64,0,0,0-.268-.853A2.682,2.682,0,0,0,126.3,59a2.72,2.72,0,0,0-.842-.247h-12.7l-19.741-.043h0l19.741-.043h12.73a2.961,2.961,0,0,1,2.274,1.577,2.832,2.832,0,0,1,.29.928,6.483,6.483,0,0,1,.032.96v38.317a4.521,4.521,0,0,1-.1,1.191,2.876,2.876,0,0,1-.536,1.073,2.924,2.924,0,0,1-2.108,1.127h-29.5l.091-.032c-2.682,2.366-5.364,4.678-7.81,6.85l-.2.177v-.268c-.129-2.382-.257-4.71-.375-6.856l.123.118H86.28a4.034,4.034,0,0,1-1.4-.156A2.961,2.961,0,0,1,83,101.708a4.693,4.693,0,0,1-.113-1.357v-13.6c0-6.094,0-11.421.027-15.814v-8.24a7.671,7.671,0,0,1,.123-1.969,2.827,2.827,0,0,1,1.824-1.888,2.9,2.9,0,0,1,.681-.129Z" fill="#263238"/><path d="M115.07,80.433l-1.427,7,4.646-.107Z" fill="#fca311"/><g opacity="0.3"><path d="M115.07,80.433l-1.427,7,4.646-.107Z"/></g><path d="M95.147,80.658l1.427,7-4.651-.107Z" fill="#fca311"/><g opacity="0.3"><path d="M95.147,80.658l1.427,7-4.651-.107Z"/></g><path d="M107.051,81.956h0a.585.585,0,0,1-.585-.563l-.681-16.4a.6.6,0,0,1,.59-.612h.821a.585.585,0,0,1,.585.59l-.139,16.4A.59.59,0,0,1,107.051,81.956Z" fill="#844031"/><rect width="1.937" height="1.422" transform="translate(105.849 66.475)" fill="#fca311"/><path d="M108.359,82.021h0a.59.59,0,0,1-.359-.735l4.994-15.632a.585.585,0,0,1,.762-.376l.767.279a.6.6,0,0,1,.349.762L109.11,81.672a.6.6,0,0,1-.751.349Z" fill="#844031"/><rect width="1.422" height="1.937" transform="translate(112.066 68.398) rotate(-69.92)" fill="#fca311"/><path d="M113.96,77.852a3.9,3.9,0,0,0-2.682-1.711,5.477,5.477,0,0,0-3.111.536,3.944,3.944,0,0,1-2.35.692,4.672,4.672,0,0,1-1.54-.874,5.461,5.461,0,0,0-4.179-.848,5.954,5.954,0,0,0-3.621,2.5,4.007,4.007,0,0,0-.708,3.294l18.518-.064a4,4,0,0,0-.327-3.524Z" fill="#e0e0e0"/><path d="M113.466,81a6.629,6.629,0,0,0,0-.912,3.374,3.374,0,0,0-1.073-2.146,2.682,2.682,0,0,0-1.507-.649,4.291,4.291,0,0,0-1.9.268c-.644.225-1.255.644-1.985.939a2.94,2.94,0,0,1-1.191.22,3.143,3.143,0,0,1-1.2-.333c-.751-.359-1.379-.848-2.044-1.191a3.927,3.927,0,0,0-2.055-.456,4.088,4.088,0,0,0-1.829.536,4.334,4.334,0,0,0-1.25,1.127,5.466,5.466,0,0,0-.992,2.242c-.107.579-.1.912-.129.907a.741.741,0,0,1,0-.236,4.518,4.518,0,0,1,.043-.687,5.305,5.305,0,0,1,.939-2.344,4.533,4.533,0,0,1,1.293-1.207,4.291,4.291,0,0,1,1.937-.612,4.157,4.157,0,0,1,2.189.472c.7.354,1.33.842,2.038,1.18a2.945,2.945,0,0,0,1.073.306,2.607,2.607,0,0,0,1.073-.2c.687-.268,1.314-.692,2-.923a4.49,4.49,0,0,1,2.012-.257,2.859,2.859,0,0,1,1.609.735,3.4,3.4,0,0,1,1.025,2.3,3.32,3.32,0,0,1-.043.687A.491.491,0,0,1,113.466,81Z" fill="#263238"/><path d="M112.586,81.2a7.5,7.5,0,0,0,0-.794,2.489,2.489,0,0,0-1.019-1.8,1.9,1.9,0,0,0-1.368-.322,4.233,4.233,0,0,0-1.545.665,6.679,6.679,0,0,1-1.749.88,3.369,3.369,0,0,1-2.108-.2c-1.346-.536-2.414-1.427-3.6-1.663a3.106,3.106,0,0,0-2.87.885,4.018,4.018,0,0,0-1,1.878c-.118.5-.113.794-.139.789s0-.07,0-.209a3.755,3.755,0,0,1,.054-.6,3.959,3.959,0,0,1,.966-2,3.428,3.428,0,0,1,1.287-.869,3.149,3.149,0,0,1,1.781-.15c1.271.247,2.36,1.153,3.648,1.658a3.165,3.165,0,0,0,1.937.193,6.678,6.678,0,0,0,1.684-.837,4.291,4.291,0,0,1,1.647-.676,2.1,2.1,0,0,1,1.513.392,2.36,2.36,0,0,1,.8,1.008,2.645,2.645,0,0,1,.215.939,2.564,2.564,0,0,1-.064.628.622.622,0,0,1-.064.2Z" fill="#263238"/><path d="M111.439,81.205a1.5,1.5,0,0,0-.118-.606,1.175,1.175,0,0,0-1.352-.671,3.256,3.256,0,0,0-1.073.461,6.711,6.711,0,0,1-1.255.654,4.442,4.442,0,0,1-3.181-.424,17.058,17.058,0,0,0-2.9-1.245,2.945,2.945,0,0,0-2.414.3,2.489,2.489,0,0,0-.982,1.341c-.113.392-.086.628-.118.628a.623.623,0,0,1-.027-.166,1.926,1.926,0,0,1,.038-.488,2.5,2.5,0,0,1,.976-1.475,3.111,3.111,0,0,1,2.586-.392,16.152,16.152,0,0,1,2.95,1.245,4.291,4.291,0,0,0,2.988.429,6.786,6.786,0,0,0,1.218-.606,3.3,3.3,0,0,1,1.153-.456,1.411,1.411,0,0,1,1.025.188,1.362,1.362,0,0,1,.488.612,1.019,1.019,0,0,1,.064.488A.3.3,0,0,1,111.439,81.205Z" fill="#263238"/><path d="M95.115,80.6c0,.477,3.4,17.949,3.4,17.949l13.341-.22,3.219-17.9Z" fill="#fca311"/><path d="M95.115,80.6a2.878,2.878,0,0,1,.37,0l1.11-.027,4.173-.07,14.3-.188h.225l-.1.2-2.065,4.1c-.59,1.169-1.169,2.323-1.733,3.433l-.038.08h-.086L98.838,88.1h-.064v-.054c-1.127-2.285-2.044-4.147-2.682-5.461l-.713-1.464-.182-.381a.536.536,0,0,1-.048-.118l.075.134.209.392.772,1.47c.66,1.287,1.609,3.1,2.757,5.332l-.091-.059,12.435-.032-.123.075,1.733-3.439,2.065-4.1.123.2-14.183.043H95.555Z" fill="#263238"/><g opacity="0.3"><path d="M99.192,87.975l.338.724h12.1l3.127-7.633-3.481,6.909Z"/></g><path d="M107.823,95.329a10.3,10.3,0,0,1-2.366.139,10.262,10.262,0,0,1-2.366-.139,10.262,10.262,0,0,1,2.366-.139,10.3,10.3,0,0,1,2.366.139Z" fill="#fff"/><path d="M106.975,92.545s-.032-.134-.1-.365a1.54,1.54,0,0,0-.569-.783,1.454,1.454,0,0,0-1.357-.182,1.427,1.427,0,1,0,1.357,2.478,1.518,1.518,0,0,0,.569-.783c.07-.225.075-.365.1-.365a.745.745,0,0,1,0,.392,1.529,1.529,0,0,1-.536.917,1.636,1.636,0,0,1-1.566.263,1.668,1.668,0,0,1,0-3.143,1.609,1.609,0,0,1,1.566.268,1.5,1.5,0,0,1,.536.912.745.745,0,0,1,0,.392Z" fill="#fff"/><path d="M99.24,74.409a.585.585,0,0,0,.327-.349.794.794,0,0,0,0-.536,2.854,2.854,0,0,0-.451-.649,2.307,2.307,0,0,1,.306-3.219c.316-.3.681-.585.724-.982A1.47,1.47,0,0,0,99.61,67.6a4.136,4.136,0,0,1-.778-1.025,2.682,2.682,0,0,1-.075-2.146,2.494,2.494,0,0,1,.912-1.132,1.041,1.041,0,0,1,.477-.231,5.056,5.056,0,0,0-.413.316A2.682,2.682,0,0,0,98.94,64.5a2.505,2.505,0,0,0,.123,1.969,4.291,4.291,0,0,0,.751.955,3.175,3.175,0,0,1,.418.536,1.18,1.18,0,0,1,.172.735,1.293,1.293,0,0,1-.327.681,6.578,6.578,0,0,1-.494.467,2.146,2.146,0,0,0-.333,2.881,2.828,2.828,0,0,1,.44.713.885.885,0,0,1,0,.649.536.536,0,0,1-.29.29C99.283,74.425,99.24,74.414,99.24,74.409Z" fill="#263238"/><path d="M101.295,74.409a.585.585,0,0,0,.327-.349.794.794,0,0,0,0-.536,2.854,2.854,0,0,0-.451-.649,2.307,2.307,0,0,1,.306-3.219c.316-.3.681-.585.724-.982a1.47,1.47,0,0,0-.536-1.073,3.991,3.991,0,0,1-.772-1.025,2.634,2.634,0,0,1-.08-2.146,2.564,2.564,0,0,1,.912-1.132,1.041,1.041,0,0,1,.483-.231,4.485,4.485,0,0,0-.418.317A2.65,2.65,0,0,0,101,64.5a2.484,2.484,0,0,0,.123,1.969,4.1,4.1,0,0,0,.746.955,3.176,3.176,0,0,1,.418.536,1.18,1.18,0,0,1,.172.735,1.25,1.25,0,0,1-.327.681c-.161.177-.333.322-.488.467a2.065,2.065,0,0,0-.654.971,2.1,2.1,0,0,0,.322,1.91,2.8,2.8,0,0,1,.435.713.858.858,0,0,1,0,.649.536.536,0,0,1-.29.29C101.343,74.425,101.295,74.414,101.295,74.409Z" fill="#263238"/><path d="M39.717,234.335l-3.734,24.279h4.265l7.2-24.279Z" fill="#263238"/><path d="M132.4,234.335l3.734,24.279h-4.27l-7.2-24.279Z" fill="#263238"/><path d="M20.315,169.937c-.3,10.954-3.143,59.276,6.764,68.476H39.385c3.219,0,3.036-1.518,2.913-4.721l-2.339-62.7a5.584,5.584,0,0,0-1.218-3.31c-1.609-2-4.865-5.08-9.323-4.78a13.2,13.2,0,0,0-6.732,2.232,5.9,5.9,0,0,0-2.371,4.8Z" fill="#455a64"/><path d="M131.844,239.115l-92.46-.7V209.847h92.46Z" fill="#455a64"/><path d="M131.48,209.847l-92.626.762V193.475l92.991-1.743Z" fill="#455a64"/><path d="M22.063,166.723s.687-23.785,26.865-25.014,65.021,0,65.021,0,32.883-1.234,33.645,19.478l-6.534,39.7H39.53Z" fill="#455a64"/><path d="M151.483,172.463c-.692,16.393-2.2,64.479-13.609,66.652h-8.481l2.623-70.24s3.932-6.856,10.482-6.437h.2a9.586,9.586,0,0,1,8.787,10.026Z" fill="#455a64"/><path d="M146.811,163.456l-.311-.075-.885-.241-.644-.177-.8-.123c-.29-.038-.6-.1-.933-.134H142.16a11.55,11.55,0,0,0-5.257,1.314l-.359.177-.349.215-.708.445a15.805,15.805,0,0,0-1.363,1.073,14.3,14.3,0,0,0-2.468,2.859v-.048c-.343,7.258-.772,16.426-1.239,26.371-.536,12.107-.928,23.067-1.148,31.011-.1,3.964-.177,7.172-.236,9.4,0,1.1-.048,1.963-.059,2.559a4.567,4.567,0,0,1-.027.665.459.459,0,0,0,0,.225v-3.449c0-2.221.07-5.434.15-9.4.177-7.945.536-18.915,1.073-31.022.445-9.951.912-19.124,1.287-26.371h0a.07.07,0,0,1,0-.043,14.243,14.243,0,0,1,2.516-2.886,15.2,15.2,0,0,1,1.389-1.1l.719-.451.354-.215.365-.177a11.609,11.609,0,0,1,5.332-1.287l1.073.038c.333.038.644.1.939.145l.8.134.644.193.88.274Z" fill="#263238"/><path d="M39.53,210.534h7.022l19.156.048c16.173.059,38.516.236,63.186-.118h1.025l-.134.123c.091-2.929.177-5.826.263-8.674q.064-2.146.129-4.249l.064-2.1c0-.343.032-.7,0-1.03a2.172,2.172,0,0,0-.268-.944,2.376,2.376,0,0,0-1.566-1.153,4.376,4.376,0,0,0-1.035-.059H122.1l-8.122.054-28.082.29c-7.987.08-14.446.113-18.909.118H61.856l5.134-.038,18.909-.2,28.077-.349,8.127-.059h5.268a4.481,4.481,0,0,1,1.073.064,2.629,2.629,0,0,1,1.733,1.282,2.382,2.382,0,0,1,.3,1.041c0,.37,0,.7,0,1.073,0,.692-.038,1.395-.059,2.1q-.064,2.1-.129,4.243-.129,4.291-.257,8.679a.145.145,0,0,1-.134.123h-1.019c-24.676.354-47.018.15-63.192.043l-19.156-.123-5.209-.038H39.97Z" fill="#263238"/><g opacity="0.2"><path d="M38.854,210.609c21.221,4.6,31.328,4.254,51.058,4.592,17.7.306,37.191-2.886,40.007-4.785Z"/></g><path d="M39.385,238.412a2,2,0,0,1,0-.236V234.8c0-2.339.048-5.692.086-9.833.1-8.315.236-19.778.386-32.438.091-6.335.172-12.37.247-17.858a11.973,11.973,0,0,0-.536-3.921,11.8,11.8,0,0,0-1.706-3.31,11.978,11.978,0,0,0-2.511-2.414,11.329,11.329,0,0,0-2.865-1.411,10.729,10.729,0,0,0-5.488-.22,10.535,10.535,0,0,0-3.83,1.663,8.722,8.722,0,0,0-1.894,1.851c-.365.488-.51.778-.536.767a1.105,1.105,0,0,1,.107-.209,6.233,6.233,0,0,1,.376-.59,8.293,8.293,0,0,1,1.872-1.91,10.46,10.46,0,0,1,3.862-1.722,10.815,10.815,0,0,1,5.579.182,11.572,11.572,0,0,1,2.95,1.427A12.338,12.338,0,0,1,38.06,167.3a11.335,11.335,0,0,1,2.285,7.371c-.07,5.493-.145,11.528-.225,17.863-.182,12.66-.349,24.139-.467,32.433-.075,4.141-.134,7.51-.177,9.833,0,1.153-.043,2.049-.059,2.682v.7a1.609,1.609,0,0,1-.032.231Z" fill="#263238"/><path d="M91.4,188.132a211.389,211.389,0,0,1,3.272-33.554c.3-1.69.7-3.508,2.006-4.613a7.154,7.154,0,0,1,4.152-1.282c10.541-.858,21.286,3.846,30.856,8.942a5.633,5.633,0,0,1,2.913,5.938c-1.609,9.173-4.828,16.093-9.565,24.853a58.225,58.225,0,0,1-33.929,3" fill="#fca311"/><path d="M72.515,105.243c-.665-4.726-.622-4.57-1.212-9.093C70.165,87.374,67.4,77.423,54.872,78.142c0,0-9.436.536-12.338,7.274-1.545,3.637-1.953,16.222-2.473,27.54a1.9,1.9,0,0,1-.107.536l-.585,1.711a25.384,25.384,0,0,0-1.346,6.974l-.794,15.712a1.958,1.958,0,0,0,1.851,2.055c4.222.2,13.867-.333,15.723-1a28.292,28.292,0,0,0,16.715-16.522c.193-.536,2.924-.767,3.439-.966C75.8,121.127,72.644,106.144,72.515,105.243Z" fill="#263238"/><path d="M52.458,82.192l.794-.735,8.438,3.53a2.36,2.36,0,0,1,2.2,2.317l-.461,27.567c0,1.872.536,4.034-.633,5.509l-1.373,1.926c-2.757,3.54-9.119,2.258-11.206-1.711a2.859,2.859,0,0,1-.29-.719,5.364,5.364,0,0,1-.118-.617c-.22-2.221-.209-4.147-.209-4.147-.118-2.435-.15-3.439-.156-3.412s-5.171-.66-6.48-7.36c-.649-3.315-.456-7.869-.2-12.338C43.124,85.829,47.474,82.117,52.458,82.192Z" fill="#ffbf9d"/><path d="M53.783,96.494a.858.858,0,0,0,.864.837.821.821,0,0,0,.858-.8.864.864,0,0,0-.864-.842.826.826,0,0,0-.858.81Z" fill="#263238"/><path d="M45.135,96.558a.858.858,0,0,0,.864.837.821.821,0,0,0,.858-.8.864.864,0,0,0-.864-.842.826.826,0,0,0-.858.81Z" fill="#263238"/><path d="M43.628,93.779c.107.113.746-.4,1.668-.424s1.609.408,1.717.29-.064-.252-.37-.456a2.344,2.344,0,0,0-1.379-.37,2.248,2.248,0,0,0-1.325.477C43.66,93.527,43.569,93.731,43.628,93.779Z" fill="#263238"/><path d="M53.016,94.01c.123.1.7-.472,1.609-.6s1.652.241,1.738.113-.091-.241-.418-.413a2.371,2.371,0,0,0-1.411-.231,2.3,2.3,0,0,0-1.266.617C53.026,93.752,52.957,93.967,53.016,94.01Z" fill="#263238"/><path d="M49.69,100.7a6.239,6.239,0,0,0-1.513-.215c-.241,0-.467-.054-.536-.215a1.169,1.169,0,0,1,.134-.708c.2-.579.408-1.191.633-1.824a31.35,31.35,0,0,0,1.4-4.769,31.667,31.667,0,0,0-1.781,4.646l-.606,1.835a1.362,1.362,0,0,0-.086.933.585.585,0,0,0,.4.327,1.443,1.443,0,0,0,.408.043,5.971,5.971,0,0,0,1.55-.054Z" fill="#263238"/><path d="M49.443,111.685a17.134,17.134,0,0,0,8.9-2.725s-2.092,4.726-8.835,4.345Z" fill="#ff9a6c"/><path d="M50.162,102.92a1.658,1.658,0,0,1,1.475-.676,1.529,1.529,0,0,1,1.073.536.982.982,0,0,1,.113,1.105,1.132,1.132,0,0,1-1.207.349,3.514,3.514,0,0,1-1.191-.676.982.982,0,0,1-.274-.263.311.311,0,0,1,0-.343" fill="#ff9a6c"/><path d="M52.436,101.241c-.15,0-.113,1-.949,1.749s-1.91.671-1.91.815c0,.059.241.182.7.182a2.537,2.537,0,0,0,1.609-.622,2.146,2.146,0,0,0,.719-1.443C52.629,101.477,52.506,101.236,52.436,101.241Z" fill="#263238"/><path d="M52.173,89.509c.123.236,1.025,0,2.119-.027s2.006.15,2.146-.091c.048-.118-.134-.333-.536-.536a3.535,3.535,0,0,0-1.609-.327,3.626,3.626,0,0,0-1.609.418C52.291,89.171,52.12,89.4,52.173,89.509Z" fill="#263238"/><path d="M43.816,89.81c.172.2.8-.038,1.566-.075s1.422.086,1.561-.139c.064-.107-.048-.316-.338-.5a2.28,2.28,0,0,0-2.521.172C43.821,89.488,43.741,89.708,43.816,89.81Z" fill="#263238"/><path d="M63.53,99.068s-4.758,1.405-7.279-10.332c-.858-4.013-4.522-7.3-4.522-7.3L53.236,81s9.312,2.768,9.468,2.886,2.291,4.865,2.291,4.865Z" fill="#263238"/><path d="M62.371,98.612c0-.5.536-1.7,1.008-1.792,1.309-.252,3.691-.231,3.835,3.111.193,4.576-4.442,3.83-4.452,3.7S62.43,100.34,62.371,98.612Z" fill="#ffbf9d"/><path d="M64.082,101.836a1.521,1.521,0,0,0,.22.107.789.789,0,0,0,.6,0,1.963,1.963,0,0,0,.837-1.808A2.629,2.629,0,0,0,65.466,99a.923.923,0,0,0-.628-.585.408.408,0,0,0-.461.236c-.054.134,0,.22-.048.231s-.1-.075-.07-.263a.536.536,0,0,1,.166-.3.622.622,0,0,1,.435-.134,1.132,1.132,0,0,1,.864.671,2.682,2.682,0,0,1,.333,1.266,2.082,2.082,0,0,1-1.073,2.022.848.848,0,0,1-.735-.086C64.1,101.949,64.072,101.847,64.082,101.836Z" fill="#ff9a6c"/><path d="M60.349,96.783a5.964,5.964,0,0,1-.681-.145,4.152,4.152,0,0,1-1.609-.971,5.461,5.461,0,0,1-.837-1,7.881,7.881,0,0,1-.671-1.346,28,28,0,0,1-.939-3.337c-.306-1.2-.638-2.328-1.008-3.337a18.587,18.587,0,0,0-1.153-2.6,12.783,12.783,0,0,0-1.025-1.609c-.134-.188-.247-.317-.322-.413a1.073,1.073,0,0,0-.118-.134,1.035,1.035,0,0,0,.1.15c.064.1.177.236.3.424a15.476,15.476,0,0,1,.987,1.609,19.713,19.713,0,0,1,1.127,2.6c.359,1,.687,2.146.992,3.326a27.808,27.808,0,0,0,.949,3.353,7.654,7.654,0,0,0,.692,1.357A5.671,5.671,0,0,0,58,95.721a4.013,4.013,0,0,0,1.658.949,2.409,2.409,0,0,0,.692.113Z" fill="#263238"/><path d="M74.108,121.405l-10.192-3.846L49.432,114.4,37.765,115.95c-2.462.054-6.727,5.225-9.972,10.772-2.907,4.967-5.2,9.962-5.2,9.962l13.577,5.075c.772,5.777,1.91,13.411,2.891,16.42a62,62,0,0,1,2.183,12.2l32.245-4.206.456-22.149,10.605-1.384C84.558,141.865,80.465,123.38,74.108,121.405Z" fill="#fca311"/><path d="M73.293,130.283a2.522,2.522,0,0,0,.059.536c.054.354.129.869.209,1.5a40.837,40.837,0,0,1,.311,5,41.556,41.556,0,0,1-.322,4.994c-.08.638-.156,1.153-.209,1.507a2.794,2.794,0,0,0-.064.536,2.382,2.382,0,0,0,.15-.536c.086-.354.182-.864.284-1.5a32.353,32.353,0,0,0,0-10.037c-.1-.633-.2-1.148-.279-1.5a2.381,2.381,0,0,0-.139-.5Z" fill="#263238"/><path d="M84.145,142.959l-10.477,1.132.166,2.875-2.328-3.337-3.514,7.29s1.416,4.259,2.183,6.609c2.044,6.3,5.311,13.336,9.119,12.874,4.586-.536,7.832-6.04,7.682-9.565C86.854,157.652,84.145,142.959,84.145,142.959Z" fill="#ffbf9d"/><path d="M89.053,184.742l18.169,7.124-6.909,8.352-15.455-2.688Z" fill="#ffbf9d"/><path d="M41.305,170.006s-.477,20.722,1.422,24.327,20.266,3.755,20.266,3.755l28.967,1.47,3.38-13.55s-21.076-9.785-23.067-10.916-6.7-3.111-6.7-3.111l-7.092-9.119Z" fill="#263238"/><path d="M74.768,198.314a1.4,1.4,0,0,0-.231-.08l-.665-.193-2.478-.681-8.331-2.215h-.032a12.587,12.587,0,0,1-1.395-.091,10.847,10.847,0,0,1-2.629-.617,12.5,12.5,0,0,1-2.274-1.073,12.815,12.815,0,0,1-4.828-5.15c-.156-.3-.252-.536-.333-.708a1.11,1.11,0,0,0-.129-.247,1.33,1.33,0,0,0,.086.263c.064.166.15.424.3.735a12.156,12.156,0,0,0,1.55,2.462,13.046,13.046,0,0,0,3.262,2.827,12.429,12.429,0,0,0,2.312,1.1,12.178,12.178,0,0,0,1.3.4,12.872,12.872,0,0,0,1.373.236,13.247,13.247,0,0,0,1.427.091h0l8.352,2.146,2.494.612.676.156A.82.82,0,0,0,74.768,198.314Z" fill="#455a64"/><path d="M73.9,176.309,78.84,146.14s-.654-21.715,11.539-20.159,10.729,20.663,10.729,20.663-1.577,26.194-2.441,29.976-1.3,7.987-3.787,9.5L83.812,184.4Z" fill="#263238"/><path d="M83.415,131.474l-2.95,7.129,1.829,27.229s15.717,1.346,15.557.917,2.816-13.561,2.816-13.561.976-17.429-3.68-20.755S83.415,131.474,83.415,131.474Z" fill="#263238"/><path d="M82.927,165.881l.2,13,10.981,6.024,2.983-18.078Z" fill="#ffbf9d"/><path d="M58.46,162.856l11.989-4.941,7.172,6.426-3.98,12.815L63.122,173.23Z" fill="#263238"/><path d="M94.648,186l-.145-.086-.44-.22-1.7-.826-6.249-3.015-9.286-4.42-5.488-2.586-2.9-1.373-1.486-.7-.751-.354a5.472,5.472,0,0,0-.772-.327,11,11,0,0,0-3.262-.66,13.143,13.143,0,0,0-3.219.2,16.286,16.286,0,0,0-5.654,2.226,18.174,18.174,0,0,0-4.157,3.61,25.047,25.047,0,0,0-2.73,3.943,36.317,36.317,0,0,0-2.752,6.346c-.257.778-.435,1.389-.536,1.808l-.129.472a.633.633,0,0,0-.032.161.384.384,0,0,1,.059-.156l.15-.467c.129-.413.322-1.014.59-1.786a37.926,37.926,0,0,1,2.8-6.319A25.656,25.656,0,0,1,49.3,177.57a18.019,18.019,0,0,1,4.125-3.557A16.093,16.093,0,0,1,59,171.83a12.741,12.741,0,0,1,3.17-.193,10.874,10.874,0,0,1,3.219.649,5.223,5.223,0,0,1,.762.322l.751.354,1.486.7,2.9,1.368,5.488,2.591L86.087,182l6.282,2.934,1.711.783.451.2a.95.95,0,0,0,.118.086Z" fill="#455a64"/><path d="M71.807,175.413a12.226,12.226,0,0,1,.134-1.974,15.434,15.434,0,0,1,1.722-4.431,27.583,27.583,0,0,0,2.06-4.35,9.056,9.056,0,0,0,.343-1.427,2.146,2.146,0,0,0,.038-.536c-.043,0-.118.756-.536,1.91a34,34,0,0,1-2.114,4.291,14.29,14.29,0,0,0-1.674,4.511,6.62,6.62,0,0,0-.059,1.47A2.226,2.226,0,0,0,71.807,175.413Z" fill="#455a64"/><path d="M100.7,153.189l-.043.139a1.993,1.993,0,0,1-.107.418c-.091.386-.215.923-.381,1.609-.322,1.4-.789,3.428-1.336,5.938-.274,1.255-.569,2.629-.853,4.114-.07.376-.145.746-.193,1.143a1.612,1.612,0,0,0,0,.172V166.7h-.027a2.24,2.24,0,0,1-.279.027h-.6c-.8,0-1.609-.059-2.473-.107-3.39-.2-7.108-.5-11.013-.821l-1.073-.091.1.107c-.536-7.569-.987-14.366-1.33-19.312-.177-2.446-.322-4.426-.424-5.81-.054-.671-.1-1.2-.129-1.572a3.224,3.224,0,0,0-.038-.408.537.537,0,0,0,0-.139.537.537,0,0,0,0,.139v.408c0,.376.054.907.086,1.577.086,1.384.2,3.363.354,5.815.322,4.924.767,11.726,1.261,19.312v.1h.1l1.073.091c3.905.327,7.628.612,11.024.8.848.043,1.674.086,2.484.1h.6a2.114,2.114,0,0,0,.311-.032.446.446,0,0,0,.113-.043.118.118,0,0,0,.043-.059.113.113,0,0,0,0-.059c0-.027-.07,0,0,0h0a1.132,1.132,0,0,1,0-.123c.043-.376.118-.756.182-1.127.279-1.486.563-2.859.826-4.12.536-2.5.966-4.527,1.266-5.949l.338-1.609c.032-.177.064-.316.08-.424a.419.419,0,0,0,.048-.182Z" fill="#455a64"/><path d="M86.226,129.42a1.85,1.85,0,0,0-.349.3c-.22.2-.536.536-.869.917a18.051,18.051,0,0,0-3.809,7.317c-.129.536-.215.939-.257,1.234a1.743,1.743,0,0,0-.043.461c.038,0,.166-.638.456-1.652a20.792,20.792,0,0,1,3.782-7.258C85.8,129.919,86.258,129.447,86.226,129.42Z" fill="#455a64"/><path d="M68.277,171.953a1.786,1.786,0,0,0-.075-.435c-.064-.274-.172-.671-.322-1.153a24.038,24.038,0,0,0-1.5-3.664,24.425,24.425,0,0,0-2.087-3.363,9.5,9.5,0,0,0-.746-.933,1.512,1.512,0,0,0-.306-.317s.349.536.917,1.346a31.592,31.592,0,0,1,2.012,3.374,30.878,30.878,0,0,1,1.55,3.61C68.063,171.363,68.24,171.964,68.277,171.953Z" fill="#455a64"/><path d="M48.558,170.382c-.038,0-.193.456-.536,1.175a14.14,14.14,0,0,1-1.609,2.639,13.71,13.71,0,0,1-2.146,2.21c-.612.5-1.025.772-1,.8s.118-.043.316-.15a8.219,8.219,0,0,0,.789-.536,11.577,11.577,0,0,0,2.264-2.183,11.758,11.758,0,0,0,1.556-2.72,8.127,8.127,0,0,0,.306-.9,1.073,1.073,0,0,0,.064-.343Z" fill="#455a64"/><path d="M106.954,200.417c6.77-.343,8.476-.129,15.245-.472,1.652-.086,7.666.123,9.044-.789,1.261-.826,2.875-1.609,3.219-3.074a6.462,6.462,0,0,0-2.414-6.834,5.472,5.472,0,0,0-2.682-.912c-4-.316-7.65,2.6-11.646,1.733-1.073-.231-2.049-.831-3.122-1.073a6.856,6.856,0,0,0-4.683.751c-1.432.74-1.765.864-1.765.864l-7.113-2.409-2.215,12.424Z" fill="#fafafa"/><path d="M100.924,185.252l3.755,1.223a1.18,1.18,0,0,1,.783,1.363l-2.913,13.325a1.164,1.164,0,0,1-1.277.917l-3.8-.424a1.169,1.169,0,0,1-1.019-1.405l2.956-14.108a1.175,1.175,0,0,1,1.513-.89Z" fill="#fafafa"/><path d="M102.459,201.7a13.446,13.446,0,0,0,.692-2c.381-1.25.858-2.988,1.287-4.941s.713-3.755.869-5.032c.075-.649.129-1.18.15-1.545a1.743,1.743,0,0,0,0-.569,17.827,17.827,0,0,0-.376,2.081c-.215,1.282-.536,3.058-.955,4.994s-.874,3.691-1.2,4.951a15.557,15.557,0,0,0-.472,2.06Z" fill="#263238"/><path d="M104.814,189.538a5.954,5.954,0,0,0-5.9-.939,13.612,13.612,0,0,1,3.031,0A17.685,17.685,0,0,1,104.814,189.538Z" fill="#263238"/><path d="M104.368,194.569a13.23,13.23,0,0,0-3.143-.987,13.047,13.047,0,0,0-3.262-.5,24.623,24.623,0,0,0,3.186.81A22.894,22.894,0,0,0,104.368,194.569Z" fill="#263238"/><path d="M102.662,199.789a10.527,10.527,0,0,1-3.058-.612,11.879,11.879,0,0,1-2.586-1.738c-.07.07.15.343.536.767a6.014,6.014,0,0,0,1.9,1.271,5.863,5.863,0,0,0,2.248.451,2,2,0,0,0,.955-.139Z" fill="#263238"/><path d="M82.643,174.727l.284,5.622,11.222,5.386,1.867-9.388Z" fill="#fafafa"/><path d="M97.872,173.048l-.842,3.916a1.2,1.2,0,0,1-1.3.939l-13.819-1.518a1.2,1.2,0,0,1-1.073-1.2v-3.9a1.2,1.2,0,0,1,1.32-1.18l14.634,1.5a1.2,1.2,0,0,1,1.078,1.443Z" fill="#fafafa"/><path d="M81.377,176.352a12.339,12.339,0,0,0,2.1.494c1.309.247,3.122.536,5.144.783a49.808,49.808,0,0,0,5.193.343h1.577a1.994,1.994,0,0,0,.574-.059,16.808,16.808,0,0,0-2.146-.161c-1.325-.08-3.154-.215-5.166-.44s-3.825-.494-5.139-.687a16.32,16.32,0,0,0-2.135-.274Z" fill="#263238"/><path d="M93.945,177.441a6.064,6.064,0,0,0,.322-6.089,12.072,12.072,0,0,1,.333,3.068A14.808,14.808,0,0,1,93.945,177.441Z" fill="#263238"/><path d="M88.8,177.527a13.448,13.448,0,0,0,.671-3.294,13.144,13.144,0,0,0,.161-3.358,24.638,24.638,0,0,0-.483,3.315A23.652,23.652,0,0,0,88.8,177.527Z" fill="#263238"/><path d="M83.329,176.352a10.9,10.9,0,0,1,.3-3.165,12.128,12.128,0,0,1,1.486-2.806c-.08-.064-.327.188-.713.649a6.072,6.072,0,0,0-1.309,4.383,2.092,2.092,0,0,0,.241.939Z" fill="#263238"/><path d="M57.661,133.454s5.734.81,6.1,1.164,7.746,9.012,7.746,9.012l-3.514,7.29-6.507-3.353a10.193,10.193,0,0,0-2.06-.617s-6.512-.885-6.974-1.658-.2-.96.274-1.073a41,41,0,0,1,5.241.37,13.3,13.3,0,0,0,2.586-.054s-2.709-.574-3.326-.772-6.679-1.422-6.6-2.51.815-1.491,4.619-.536a26.993,26.993,0,0,0,6.448.864l-8.417-2.741s-3.39-1.008-2.328-2,8.315.848,8.315.848l3.219,1.137-.944-1.9a41.5,41.5,0,0,1-5.15-1.69c-.73-.536-.842-1.073-.311-1.54A2.162,2.162,0,0,1,57.661,133.454Z" fill="#ffbf9d"/><path d="M38.087,124.329a3.309,3.309,0,0,1-.075.644c-.075.467-.172,1.046-.29,1.733-.241,1.464-.536,3.492-.853,5.734s-.5,4.291-.638,5.767c-.064.692-.123,1.277-.166,1.749a3.482,3.482,0,0,1-.091.644,2.575,2.575,0,0,1,0-.649c0-.418.032-1.019.075-1.76.091-1.486.268-3.535.536-5.783s.644-4.291.939-5.734c.15-.73.279-1.32.376-1.722a2.553,2.553,0,0,1,.188-.622Z" fill="#263238"/><path d="M76,124.892c0-.15-1.427-8.958-2.092-12.075l-10.493,1.609c-.145,1.3-.193,5.847-.161,7.376a6.775,6.775,0,0,0,1.443,4.259,4.12,4.12,0,0,0,4.109,1.416,5.579,5.579,0,0,0,3.439,2.307,3.127,3.127,0,0,0,3.433-1.851A7.472,7.472,0,0,0,76,124.892Z" fill="#263238"/><path d="M60.713,126.1,59.04,142.155a1.008,1.008,0,0,1-1.073.9l-9.935-.794a1,1,0,0,1-.923-1.073l1.169-16.882a1.008,1.008,0,0,1,1.169-.928l10.418,1.609a1,1,0,0,1,.848,1.11Z" fill="#263238"/><path d="M52.324,131.426s-5.783-.145-6.207.145-9.1,7.633-9.1,7.633l2.264,7.778s6.249-2.006,6.974-2.242a10.513,10.513,0,0,1,2.146-.274s6.571.2,7.129-.494.354-.912-.1-1.121a36.983,36.983,0,0,0-5.23-.488,13.343,13.343,0,0,1-2.543-.477s2.768-.123,3.406-.22,6.823-.311,6.931-1.389-.536-1.609-4.468-1.3a27.09,27.09,0,0,1-6.437-.172l8.7-1.336s3.508-.44,2.623-1.609-8.347-.536-8.347-.536l-3.353.6,1.239-1.727a41.548,41.548,0,0,0,5.364-.821c.81-.418,1.008-.912.536-1.464A2.126,2.126,0,0,0,52.324,131.426Z" fill="#ffbf9d"/><path d="M24.815,137.515l9.7,3.621-.182,1.346,2.918-3.476,2.682,6.974s-4.511,8.867-5.488,11.142c-2.795,6.587-7.762,10.026-11.324,8.567a8.451,8.451,0,0,1-4.79-11.3C19.494,151.4,24.815,137.515,24.815,137.515Z" fill="#ffbf9d"/><path d="M37.014,139.2s.08-.08.236-.22l.713-.617,2.747-2.344,4.35-3.675.654-.536.343-.279a1.335,1.335,0,0,1,.456-.118c.6-.064,1.207-.075,1.835-.086h3.98a3.052,3.052,0,0,1,1.046.15,1.357,1.357,0,0,1,.488.279,1.153,1.153,0,0,1,.311.483.724.724,0,0,1-.048.6,1.384,1.384,0,0,1-.4.424,2.033,2.033,0,0,1-.536.279c-.188.054-.37.1-.536.134-1.486.284-3.052.461-4.672.638l.075-.038L46.814,136l-.1-.166,3.353-.6h0c1.405-.107,2.854-.177,4.329-.172a19.753,19.753,0,0,1,2.242.118,6.882,6.882,0,0,1,1.132.209,1.877,1.877,0,0,1,.536.247.773.773,0,0,1,.349.536.7.7,0,0,1-.306.579,2.258,2.258,0,0,1-.536.3,6.9,6.9,0,0,1-1.132.349c-.772.166-1.55.247-2.328.376l-4.742.719-2.575.386v-.225a28.27,28.27,0,0,0,5.97.2,25.488,25.488,0,0,1,2.929-.1,4.088,4.088,0,0,1,1.443.268,1.073,1.073,0,0,1,.574.536,1.325,1.325,0,0,1,.08.762.585.585,0,0,1-.247.338,2,2,0,0,1-.327.182,4.6,4.6,0,0,1-.681.225,13.291,13.291,0,0,1-1.363.268c-.907.134-1.8.22-2.682.29l-1.314.1c-.424.032-.864.1-1.293.118-.853.054-1.69.1-2.516.134v-.2a10.81,10.81,0,0,0,2.779.488c.933.038,1.84.107,2.725.182.44.043.88.086,1.309.139.215.027.429.054.638.091a2.173,2.173,0,0,1,.333.086,1.47,1.47,0,0,1,.29.172.472.472,0,0,1,.188.322.612.612,0,0,1-.075.343,1.856,1.856,0,0,1-.172.279l-.1.123a.494.494,0,0,1-.139.118,3.8,3.8,0,0,1-1.2.284,39.947,39.947,0,0,1-4.436.15h-1a7.13,7.13,0,0,0-.96,0,6.892,6.892,0,0,0-1.749.29l-5.032,1.609-1.33.408-.338.1-.118.032.113-.043.338-.118,1.32-.44L46,144.74a11.506,11.506,0,0,1,3.755-.322,39.65,39.65,0,0,0,4.415-.172,3.605,3.605,0,0,0,1.132-.268.311.311,0,0,0,.091-.075l.091-.118a1.357,1.357,0,0,0,.15-.252c.091-.177.091-.343-.064-.451a1.158,1.158,0,0,0-.252-.15c-.086-.027-.188-.048-.29-.07-.2-.038-.418-.064-.628-.091q-.644-.07-1.3-.129c-.88-.075-1.786-.139-2.714-.177a11.039,11.039,0,0,1-2.827-.483.1.1,0,0,1,.021-.2h0c.826-.038,1.663-.08,2.516-.139.429,0,.842-.086,1.287-.123l1.314-.1c.88-.075,1.776-.156,2.682-.3a12.607,12.607,0,0,0,1.341-.263,4.293,4.293,0,0,0,.644-.215c.193-.086.418-.215.445-.365a1.073,1.073,0,0,0-.064-.617.864.864,0,0,0-.461-.408,3.937,3.937,0,0,0-1.363-.247,25.218,25.218,0,0,0-2.9.107,27.823,27.823,0,0,1-5.992-.188.107.107,0,0,1-.1-.129.113.113,0,0,1,.1-.1h0l2.575-.392,4.742-.719c.778-.129,1.561-.209,2.312-.37a6.575,6.575,0,0,0,1.073-.333,2.291,2.291,0,0,0,.477-.268.467.467,0,0,0,.22-.381c-.032-.316-.386-.5-.735-.6a6.279,6.279,0,0,0-1.073-.2,22.074,22.074,0,0,0-2.221-.118c-1.47,0-2.913.059-4.291.161h0l-3.358.59a.1.1,0,0,1-.118-.086.107.107,0,0,1,0-.08c.435-.6.858-1.191,1.245-1.722a.118.118,0,0,1,.075-.043c1.609-.172,3.181-.349,4.651-.622a5.122,5.122,0,0,0,.536-.129,1.744,1.744,0,0,0,.461-.247c.29-.2.51-.5.392-.81a1.073,1.073,0,0,0-.687-.649,2.682,2.682,0,0,0-.982-.139h0c-1.389-.038-2.72-.054-3.97-.038a14.475,14.475,0,0,0-1.824.075,1.137,1.137,0,0,0-.386.091l-.338.268-.654.536L40.769,136.1l-2.784,2.3-.73.6C37.094,139.14,37.014,139.2,37.014,139.2Z" fill="#ff9a6c"/><path d="M37.014,139.2c.059.048-2.682,3.5-6.094,7.709s-6.244,7.58-6.325,7.537,2.682-3.5,6.094-7.709S36.944,139.156,37.014,139.2Z" fill="#ff9a6c"/></g></g></svg>