<svg xmlns="http://www.w3.org/2000/svg" xmlns:xlink="http://www.w3.org/1999/xlink" width="350" height="269.118" viewBox="0 0 350 269.118"><defs><clipPath id="a"><rect width="350" height="269.118" transform="translate(63 179)" fill="#fff" stroke="#707070" stroke-width="1"/></clipPath></defs><g transform="translate(-63 -179)" clip-path="url(#a)"><g transform="translate(80.764 151.93)"><rect width="46.127" height="135.594" transform="translate(197.872 27.07)" fill="#37474f"/><path d="M295.144,267.93H146.713c0-83.341,15.724-123.468,74.215-123.468S295.144,184.588,295.144,267.93Z" fill="#455a64"/><path d="M278.081,206.211l-56.97.371-28.655.151-28.686.063h-.711l.138-.7a98.392,98.392,0,0,1,6.107-20.271A51.5,51.5,0,0,1,181.343,168.4a45.636,45.636,0,0,1,18.566-10.145,76.775,76.775,0,0,1,21.007-2.616,75.95,75.95,0,0,1,20.969,2.736,45.46,45.46,0,0,1,18.428,10.214,51.338,51.338,0,0,1,11.83,17.4A96.568,96.568,0,0,1,278.081,206.211Zm0,0a99.852,99.852,0,0,0-6.289-20.063,51.63,51.63,0,0,0-11.95-17.051,44.7,44.7,0,0,0-18.208-9.868,76.693,76.693,0,0,0-20.755-2.516,74.45,74.45,0,0,0-20.686,2.642,44.5,44.5,0,0,0-18.063,9.937,51.387,51.387,0,0,0-11.73,17.038,97.487,97.487,0,0,0-6.094,20l-.572-.7,28.46.057,28.51.151Z" fill="#37474f"/><path d="M220.941,156.8q.358,6.138.484,12.29c.1,4.1.132,8.176.145,12.3s-.038,8.176-.138,12.29-.252,8.176-.491,12.3q-.371-6.151-.491-12.3c-.1-4.094-.132-8.176-.138-12.29s.038-8.176.138-12.3S220.7,160.9,220.941,156.8Z" fill="#37474f"/><rect width="4.176" height="15.736" transform="translate(210.105 179.525)" fill="#37474f"/><rect width="4.176" height="15.736" transform="translate(227.589 179.525)" fill="#37474f"/><rect width="58.706" height="3.069" transform="translate(191.582 218.205)" fill="#37474f"/><rect width="58.706" height="3.069" transform="translate(191.582 223.369)" fill="#37474f"/><rect width="58.706" height="3.069" transform="translate(191.582 228.526)" fill="#37474f"/><rect width="58.706" height="3.069" transform="translate(191.582 233.684)" fill="#37474f"/><rect width="58.706" height="3.069" transform="translate(191.582 238.847)" fill="#37474f"/><rect width="58.706" height="3.069" transform="translate(191.582 244.005)" fill="#37474f"/><path d="M229.419,238.847h-9.535c-1.025.811-2.975,2.094-4.063,3.063h13.541c.088-.277.17-.5.226-.66a6.289,6.289,0,0,0-.17-2.4Zm4.893,0H232.13c-.327.855-.849,2.031-1.258,3.063h3.145a16.906,16.906,0,0,0,.3-3.063ZM232,233.684h-.434a31.6,31.6,0,0,1,.761,3.069h1.258c-.44-1-1.063-2.157-1.585-3.069Zm2.321,7.906v.321h.252c-.145-.2-.252-.321-.252-.321Zm2.239,3.371a3.529,3.529,0,0,0-.44-.956h-1.736a1.479,1.479,0,0,1-.063.5c-.176.314-.748.918-.887.811a6.1,6.1,0,0,1,.176-1.308H230.3a11.808,11.808,0,0,0,.522,3.069h5.422A5.39,5.39,0,0,0,236.564,244.961Zm-31.158-6.113a3.145,3.145,0,0,0-.245,1.082c.031.453.151,1.17.3,1.981h6.4a23.99,23.99,0,0,1,.975-3.063Zm5.66-5.164h-3.214c-.541,1.025-1.1,2.1-1.566,3.069h6.076c-.365-.962-.893-2.157-1.27-3.069Zm-2.132-10.315-.12-.12.044.12c.151.409.629,1.742.987,3.063h1.723a33.86,33.86,0,0,0-2.61-3.063Zm1.3,5.157a1.886,1.886,0,0,1-.057.629,23.782,23.782,0,0,1-1.208,2.415h1.83a28.079,28.079,0,0,0,1.717-3.069Zm18.434,18.29c-.358-.384-.2-1.6.088-2.811H205.872a27.2,27.2,0,0,1,.516,3.069h3.3c.239-.874.472-1.566.472-1.566a5.9,5.9,0,0,1,.761,1.566h18.063a1.931,1.931,0,0,1-.3-.258Zm.73-7.969H214.469l-.83.5a5.04,5.04,0,0,0-1.623,2.566h17.378c.088-.277.17-.5.226-.66a6.29,6.29,0,0,0-.2-2.4Zm-8.415-13.12a4.047,4.047,0,0,1-.22-2.359h-.686c-.509.868-1.151,2-1.686,3.063H221.8a4.792,4.792,0,0,1-.824-.7Zm-3.522,2.8a3.105,3.105,0,0,0-.157.629,4.264,4.264,0,0,0,.572,2.415h4.4c.258-.805,1.459-2.327,1.692-3.069Zm10.61,5.786a3.34,3.34,0,0,0-1.258-.629h-8.654a23.367,23.367,0,0,1-1.132,3.069h11.912a10.548,10.548,0,0,0-.868-2.44Z" fill="#fca311"/><path d="M212.539,223.369c.119.447.226.811.239.868a11.854,11.854,0,0,1-1.05-.868Z" fill="#fca311"/><path d="M213.35,218.205c-.308,1.088-.987,2.321-1.182,3.069h-1.887v-.069a9.663,9.663,0,0,1,.849-3Z" fill="#fca311"/><path d="M228.042,229.992c-.17.6-.365,1.189-.516,1.6h-.39a6.233,6.233,0,0,1-.314-1.805,2.981,2.981,0,0,1,.629-1.258h.459a1.95,1.95,0,0,1,.132,1.459Z" fill="#fca311"/><path d="M234.093,228.526c-.132.918-.516,2.421-.686,3.069h-.283a10.5,10.5,0,0,1-1.145-3.069Z" fill="#fca311"/><path d="M233.627,224.614a11.457,11.457,0,0,0,.258,1.818H232.08a10.314,10.314,0,0,1,.893-2.516,1.931,1.931,0,0,1,.484-.522h.667A3.61,3.61,0,0,0,233.627,224.614Z" fill="#fca311"/><path d="M222.356,223.369h.119l-.145.107S222.338,223.438,222.356,223.369Z" fill="#fca311"/><path d="M226.2,218.205a3.5,3.5,0,0,1-.239,1.377,7.654,7.654,0,0,1-1.189,1.692h-2.063a6.836,6.836,0,0,0,.1-2.063c-.239-.849-2.786,0-3.421.516a12.44,12.44,0,0,0-1.4,1.547h-.849a6.811,6.811,0,0,1-1.132-3.069Z" fill="#fca311"/><path d="M214.992,230.074c-.176.472-.346,1.075-.459,1.522h-1.95c.4-.981,1.572-2.258,1.648-2.686a1.6,1.6,0,0,0,0-.384h.566A2.717,2.717,0,0,1,214.992,230.074Z" fill="#fca311"/><path d="M213.017,233.684h2.616a18.928,18.928,0,0,1-1.7,1.887,6.863,6.863,0,0,0,0-.874c0-.321-.226-.138-.629-.629A3.78,3.78,0,0,1,213.017,233.684Z" fill="#fca311"/><path d="M216.048,231.6h-1a.629.629,0,0,0,.1-.17,9.5,9.5,0,0,0,.27-.931,4.729,4.729,0,0,1,.629,1.1Z" fill="#fca311"/><g opacity="0.4"><path d="M220.444,236.753a17.859,17.859,0,0,0-.73-2.157,28.307,28.307,0,0,1,2.359,2.157Z" fill="#fff"/><path d="M223.319,241.91h-7.5c1.088-.969,3.038-2.252,4.063-3.063H223.7a1.609,1.609,0,0,1,.1.252A4.612,4.612,0,0,1,223.319,241.91Z" fill="#fff"/><path d="M225.162,241.91h-1.094a7.46,7.46,0,0,1,1.509-2.12,3.34,3.34,0,0,0-.415,2.12Z" fill="#fff"/><path d="M227.136,246.187a5.105,5.105,0,0,1-.277.887H214.815c.113-.585.031-1.956.088-3.069h7.478a1.409,1.409,0,0,0-.145.491,8.2,8.2,0,0,0,1.258,2.308,4.805,4.805,0,0,0,.975-2.308,3.043,3.043,0,0,0,0-.491h2.044a3.359,3.359,0,0,1,.623,2.182Z" fill="#fff"/><path d="M218.954,218.205h1.679a7.768,7.768,0,0,0-1.289.95C219.319,219.1,219.136,218.7,218.954,218.205Z" fill="#fff"/><path d="M224.25,218.205a5.459,5.459,0,0,1-.824,1.333,4.4,4.4,0,0,0-.547-1.333Z" fill="#fff"/><path d="M212.13,218.205c-.157.8-.535,2.629-.629,3.063h-.692a.625.625,0,0,1,0-.107A9.966,9.966,0,0,1,212,218.2Z" fill="#fff"/><path d="M212.205,223.369Z" fill="#fff"/><path d="M234.137,246.112s-.132.44-.258.962h-.541C233.765,246.546,234.137,246.112,234.137,246.112Z" fill="#fff"/><path d="M207.419,244.03h2.233c-.629,1.258-1.359,2.465-1.359,2.465S207.853,245.332,207.419,244.03Z" fill="#fff"/><path d="M208.809,236.753h-1.05c.629-1.459,1.189-2.786,1.189-2.786S208.9,235.42,208.809,236.753Z" fill="#fff"/><path d="M210.463,241.91H206.8a5.44,5.44,0,0,1-.233-1.692,8.093,8.093,0,0,1,.39-1.371h1.66a8.947,8.947,0,0,0,.34,2.679,16.249,16.249,0,0,0,.805-1.981,2.446,2.446,0,0,0,0-.7h.258a8.642,8.642,0,0,1,.447,3.063Z" fill="#fff"/></g><rect width="4.226" height="102.442" transform="translate(258.936 165.506)" fill="#fca311"/><path d="M286.867,161.733c0,4.151-2.384,6.786-6.95,7.4-6.346.862-18.868.862-18.868.862s-12.516,0-18.868-.862c-4.566-.629-6.95-3.245-6.95-7.4,0-1.887,3.384-44.907,3.384-44.907h44.869S286.867,159.84,286.867,161.733Z" fill="#fca311"/><g opacity="0.1"><path d="M286.867,161.733c0,4.151-2.384,6.786-6.95,7.4-4.736.629-12.906.805-16.749.849V267.93h-4.233V169.972c-3.843-.038-12.013-.2-16.749-.843-4.566-.629-6.95-3.245-6.95-7.4,0-1.887,3.377-44.907,3.377-44.907H283.49S286.867,159.84,286.867,161.733Z"/></g><path d="M132.952,227.948v.346a1.344,1.344,0,0,1,.038.195,1.308,1.308,0,0,0,0,.138.744.744,0,0,0,.057.333,4.339,4.339,0,0,1,.119.629l.22,1.22q.038.195.075.415c.038.189.069.39.113.591s.082.459.126.7h0c.031.17.069.346.1.522.094.535.195,1.107.308,1.717a.094.094,0,0,1,0,.044c.119.679.252,1.409.39,2.17.038.2.075.4.12.629l.113.629h0a1.884,1.884,0,0,0,.075.4h0c.189,1.069.4,2.189.629,3.377.069.4.145.805.214,1.214.151.805.3,1.623.453,2.465.038.195.075.39.107.591q.333,1.837.692,3.818a2.267,2.267,0,0,0,.075.4c.113.629.233,1.258.34,1.887a1.258,1.258,0,0,1,0,.151c.057.3.107.629.164.906.22,1.22.447,2.472.679,3.742.063.314.12.629.176.962.113.629.233,1.289.352,1.943.151.818.3,1.635.453,2.472s.3,1.667.453,2.516c.082.421.157.849.233,1.258s.189,1.019.277,1.535h43.133c-5.327-22.133-9.818-39.963-9.818-39.963Z" fill="#37474f"/><path d="M139.481,232.929q3.245,17.491,6.554,34.982h.6c-2.289-11.686-4.654-23.353-7.006-35.026C139.625,232.791,139.462,232.835,139.481,232.929Z" fill="#263238"/><path d="M132.958,227.948a.314.314,0,0,1,0,.069v.277a1.344,1.344,0,0,1,.038.195,1.308,1.308,0,0,0,0,.138,2.639,2.639,0,0,0,.057.333c.019.126.075.4.119.629.069.352.138.761.22,1.22q.038.195.075.415c.038.189.069.39.113.591s.082.459.126.7h0c.031.17.069.346.1.522.094.535.195,1.107.308,1.717a.094.094,0,0,1,0,.044c.126.679.258,1.4.4,2.164.044.2.075.4.113.629l.113.629h0a2.376,2.376,0,0,0,.075.4h0c.195,1.063.4,2.189.629,3.377.069.4.145.805.214,1.214.151.805.3,1.623.453,2.465.038.195.075.39.107.591.226,1.226.459,2.516.692,3.818a2.266,2.266,0,0,0,.075.4c.113.629.233,1.258.34,1.887a1.258,1.258,0,0,1,0,.151c.057.3.107.629.164.906.226,1.22.453,2.472.679,3.742.063.314.12.629.176.962.12.629.233,1.289.352,1.943.151.818.3,1.635.453,2.472s.3,1.667.453,2.516c.082.421.157.849.233,1.258l.421,1.6h21.617l1.736-17.749.063-.629.069-.679h0l.34-3.472h0l.3-3.006,1.409-14.415Z" fill="#263238"/><path d="M106.53,267.93h48.46c.082-4.289.164-8.434.27-12.346h0V255.3a92.329,92.329,0,0,0,8.365-5.742,10.281,10.281,0,0,0,1.365-1.359h0c1.887-2.39,3.774-11.573,7.642-20.214H112.776C107.549,239.935,105.184,260.382,106.53,267.93Z" fill="#37474f"/><path d="M166.355,247.558a42.607,42.607,0,0,0-7.723,4.56c-2.56,1.748-4.9,3.774-7.359,5.66-.094.069,0,.226.1.157,2.591-1.654,5.3-3.107,7.868-4.811a49.443,49.443,0,0,0,7.233-5.346.125.125,0,0,0-.12-.22Z" fill="#263238"/><path d="M166.7,231.539c-.327,1.774-.761,3.528-1.145,5.289-.359,1.654-.629,3.346-1.057,4.981a8.491,8.491,0,0,1-2.321,4.17,24.016,24.016,0,0,1-2.057,1.686c-.371.3-.774.585-1.164.887.05-.233.094-.472.138-.711l.34-2.019q.377-2.245.723-4.491c.447-2.943.862-5.912,1.478-8.805a.094.094,0,0,0-.182-.044c-.736,2.887-1.547,5.742-2.182,8.654-.314,1.428-1.434,8.478-1.484,8.975s-.094,1.031-.107,1.553a6.291,6.291,0,0,0,0,1.579.126.126,0,0,0,.239,0h0a6.421,6.421,0,0,0,.447-1.535c.126-.5.245-1.013.333-1.528a4.451,4.451,0,0,1,.082-.56c.7-.421,1.346-.981,1.994-1.447s1.409-1.006,2.076-1.56a7.975,7.975,0,0,0,2.516-3.956,28.7,28.7,0,0,0,.83-5.069c.226-2,.39-4.013.667-6.013C166.9,231.451,166.726,231.451,166.7,231.539Z" fill="#263238"/><path d="M119.31,243.891c.742-.39,3.623.3,8.868-.6A6.007,6.007,0,0,0,131,242.143a14.675,14.675,0,0,0,3.226-4.44,22.642,22.642,0,0,0,2.258-5.484c.031-.113.195-.063.176.05-.195,1.088-.3,2.17-.591,3.245a20.642,20.642,0,0,1-1.082,2.943,11.913,11.913,0,0,1-3.315,4.887c-1.6,1.2-4.006,1.5-6.032,1.642-1.176.082-5.774-.044-6.4-.7a.258.258,0,0,1,.063-.4Z" fill="#263238"/><path d="M163.424,168.443c8.352-1.792,41.07-17.139,47.957-28.422,5.421-8.887,9.371-33.164,9.767-36.825,1.082-10.063-25.919-14.308-27.516-8.579-2.843,10.189-3.145,31.12-4.44,33.623-2.623,4.975-19.862,20.265-32.315,28.516C148.82,162.1,148.229,171.7,163.424,168.443Z" fill="#eb9481"/><path d="M221.149,103.2c.956-1.415,9.139-11.635,10.786-18.937.874-3.868,2.076-14.768-.208-15.6-2.088-.748-3.145,2.157-3.145,2.157s.465-4.868-2.447-5.887-4.459,3.987-4.459,3.987.113-5.032-2.862-5.843-3.686,4.484-3.686,4.484.314-4.6-2.415-4.226c-3.283.44-2.912,8.988-4.623,13.025-.39.918-9.183,18.051-9.183,18.051Z" fill="#eb9481"/><path d="M214.954,67.624c.258,6.289-.711,9.076-3.774,14.466-.063.107.082.22.151.113,3.5-4.975,5.233-8.3,3.956-14.585C215.2,67.3,214.947,67.3,214.954,67.624Z" fill="#263238"/><path d="M221.495,68.957c-.3,6.554-1.327,9.591-4.151,15.447-.038.082.1.164.145.082,3.245-5.516,4.893-8.874,4.34-15.459C221.8,68.731,221.514,68.662,221.495,68.957Z" fill="#263238"/><path d="M228.432,71.071c-.748,6.289-1.736,9.7-5.2,15.038a.119.119,0,0,0,.189.138c4.063-5.1,5.321-9.308,5.2-15.132C228.614,70.743,228.476,70.7,228.432,71.071Z" fill="#263238"/><path d="M194.714,96.455a25.092,25.092,0,0,1-1.736-11.233c.421-3.522,4.811-16.774,7.723-15.893,3.774,1.132,2.484,9.321,1.34,13.246,0,0,8.7,2.616,9.063,8.686S194.714,96.455,194.714,96.455Z" fill="#eb9481"/><path d="M201.639,69.982c2.686,3.51.843,8.566,0,12.453a.365.365,0,0,0,.384.459c3.579,1.34,8.233,4.271,9.233,8.176a.094.094,0,0,0,.182,0c-.5-4.34-4.843-7.591-8.856-8.805.918-3.975,2.516-9.126-.925-12.283Z" fill="#263238"/><path d="M177.62,138.581l22.472,17.887s-23.271,11.365-35.516,13.623c-12.736,2.352-19.252-4.931-6.138-15.981C171.349,143.217,177.62,138.581,177.62,138.581Z" fill="#fca311"/><path d="M204.583,155.569l-6.918,4.013L174.94,138.248l6.264-4.673,22.78,21.51" fill="#fca311"/><path d="M195.085,156.7c-.629-.453-1.189-1-1.767-1.509l-1.786-1.566c-1.208-1.057-2.4-2.138-3.585-3.226-2.365-2.17-4.742-4.327-7.076-6.541-.629-.629-1.258-1.214-1.887-1.837s-1.258-1.359-1.918-2.013c-.044-.044,0-.1.063-.063.629.522,1.258.994,1.855,1.509s1.258,1.069,1.837,1.61q1.792,1.616,3.56,3.258c2.314,2.151,4.642,4.3,6.918,6.5.629.629,1.258,1.258,1.887,1.849a25.324,25.324,0,0,1,1.975,1.969.049.049,0,0,1-.076.063Z" fill="#263238"/><path d="M174.412,231.451h-64s5.428-45.592,22.548-75.178c6.4-11.057,24.164-9.107,27.718,2.44C166.16,176.569,174.595,231.237,174.412,231.451Z" fill="#fca311"/><path d="M163.336,167.928c0-.226.038-.465.057-.692s.038-.629.05-.962v-1.918c0-.057-.082-.05-.088,0-.057.629-.107,1.258-.132,1.887v.925a1.021,1.021,0,0,1,0,.138,41.761,41.761,0,0,0-1.346-5.289c0-.057-.119-.05-.113,0,.264,1.962.767,3.912,1.17,5.855s.862,3.969,1.321,5.95a.05.05,0,0,0,.094,0C164.072,171.821,163.752,169.859,163.336,167.928Z" fill="#263238"/><path d="M130.267,161.009c-8-2.994-35.686-17.875-40.881-30.038-4.069-9.591-6.868-39.252-6.73-42.938.4-10.063,27.724-10.371,28.472-4.472,1.327,10.5.994,36.321,1.931,38.994,1.887,5.308,14.252,17.875,25.365,27.856C145.638,156.858,144.82,166.45,130.267,161.009Z" fill="#eb9481"/><path d="M83.876,89.939c-1.1-1.308-10.308-10.617-12.711-17.711-1.258-3.774-3.6-14.466-1.415-15.529,1.994-.969,3.359,1.811,3.359,1.811s-.975-4.793,1.818-6.107,4.843,3.5,4.843,3.5-.629-4.994,2.245-6.1,4.151,4.082,4.151,4.082-.8-4.541,1.956-4.459c3.315.1,3.843,8.635,5.962,12.478.478.874,11.013,16.981,11.013,16.981Z" fill="#eb9481"/><path d="M86.316,53.926c.4,6.289,1.66,8.956,5.289,13.969.069.094-.057.226-.138.126-4.006-4.585-6.069-7.711-5.453-14.088C86.039,53.617,86.3,53.63,86.316,53.926Z" fill="#263238"/><path d="M79.951,55.938c.987,6.484,2.327,9.4,5.742,14.931.05.075-.082.164-.132.088-3.774-5.145-5.8-8.315-5.931-14.919C79.624,55.743,79.907,55.643,79.951,55.938Z" fill="#263238"/><path d="M73.278,58.787c1.409,6.208,2.736,9.434,6.742,14.409a.116.116,0,0,1-.17.157c-4.579-4.642-6.289-8.7-6.755-14.5C73.058,58.454,73.19,58.4,73.278,58.787Z" fill="#263238"/><path d="M111.153,83.561s1.082-7.654-1.145-14.428c-1.1-3.371-6.528-16.176-9.34-15-3.623,1.522-1.5,9.528.057,13.315,0,0-8.39,3.51-8.107,9.585S111.153,83.561,111.153,83.561Z" fill="#eb9481"/><path d="M99.813,54.882c-2.308,3.774.05,8.6,1.258,12.39a.358.358,0,0,1-.34.491c-3.415,1.711-7.742,5.113-8.321,9.1a.094.094,0,0,1-.189,0c.044-4.359,4.025-8.05,7.887-9.679-1.327-3.862-3.478-8.805-.359-12.315Z" fill="#263238"/><path d="M120.581,129.4,95.744,143.814s21.384,14.642,33.145,18.654c12.252,4.182,19.761-2.069,8.409-14.912C126.109,134.9,120.581,129.4,120.581,129.4Z" fill="#fca311"/><path d="M92.914,143.11l5.925,5.365,26.68-16.114-5.151-5.881L93.6,142.757" fill="#fca311"/><path d="M101.964,146.2c.7-.314,1.371-.736,2.044-1.113s1.384-.774,2.076-1.157q2.094-1.164,4.176-2.421c2.767-1.623,5.541-3.239,8.283-4.918.755-.459,1.509-.918,2.245-1.4s1.528-1.063,2.3-1.566c.05,0,0-.094-.05-.069-.692.384-1.428.7-2.126,1.088s-1.434.786-2.138,1.189c-1.39.805-2.78,1.616-4.157,2.44-2.711,1.623-5.434,3.239-8.113,4.918l-2.239,1.409c-.78.491-1.61.95-2.34,1.509C101.889,146.154,101.889,146.223,101.964,146.2Z" fill="#263238"/><path d="M130.757,163.525a8.315,8.315,0,0,0-1.887-1.723,22.829,22.829,0,0,0-4.786-2.176.05.05,0,1,0-.031.094,16.868,16.868,0,0,1,4.321,2.755c.629.5,1.258.994,1.887,1.453a14.466,14.466,0,0,1,1.956,1.717c0,.031.094,0,.063-.05A25.237,25.237,0,0,0,130.757,163.525Z" fill="#263238"/><path d="M138.952,152.437a23.271,23.271,0,0,0,6.918,9.874,12.793,12.793,0,0,0,5.352,2.78,5.465,5.465,0,0,0,3.145-.119,6.151,6.151,0,0,0,2.384-1.962,11.56,11.56,0,0,0,1.667-3.076,27.535,27.535,0,0,0,1.107-3.774.038.038,0,1,1,.069,0c-.258,1.22-.415,2.459-.761,3.66a12.491,12.491,0,0,1-1.3,3.038,7.547,7.547,0,0,1-2.164,2.308,4.887,4.887,0,0,1-3.145.742,11.478,11.478,0,0,1-5.906-2.44,20.358,20.358,0,0,1-4.4-4.541,21.617,21.617,0,0,1-3.088-6.459C138.808,152.387,138.927,152.361,138.952,152.437Z" fill="#263238"/><path d="M154.091,162.173c-3.925.717-10.29-5.56-12.673-10.5-.164-.34.522-3.774,1.157-8.013.371-2.572.73-5.44.862-8.082,0-.541,16.353,4.874,16.353,4.874a43.57,43.57,0,0,0-2.12,10.063,6.09,6.09,0,0,0,.057,1.088v.182C157.972,153.852,157.865,161.475,154.091,162.173Z" fill="#eb9481"/><path d="M156.034,151.776a9.626,9.626,0,0,0,1.7,0,1.554,1.554,0,0,0,0-.182,6.088,6.088,0,0,1-.057-1.088,42.245,42.245,0,0,1,2.12-10.063s-13.258-4.4-15.906-4.874C144.242,138.657,146.28,151.059,156.034,151.776Z" fill="#263238"/><path d="M137.015,120.191c-.176,6.145,7.327,21.7,12.365,24.246,7.3,3.686,17.013,1.56,19.579-6.7,2.484-8.013-7.642-28.114-13.063-30.189C147.921,104.474,137.267,111.109,137.015,120.191Z" fill="#eb9481"/><path d="M155.531,125.3c0-.038-.057.088,0,.132.528,1.031.969,2.308.182,3.107,0,0,0,.075.038.057C156.8,127.877,156.2,126.191,155.531,125.3Z" fill="#263238"/><path d="M154.091,124.65c-1.748.673-.27,4.126,1.352,3.5S155.544,124.078,154.091,124.65Z" fill="#263238"/><path d="M161.638,122.543c0-.044.107,0,.12.063.428,1.082,1.094,2.252,2.214,2.189.038,0,.057.057,0,.063C162.745,125.2,161.871,123.638,161.638,122.543Z" fill="#263238"/><path d="M162.116,121.021c1.667-.868,3.283,2.516,1.736,3.321S160.726,121.744,162.116,121.021Z" fill="#263238"/><path d="M152.034,123.656a14.922,14.922,0,0,0,1.138-1.044,2.516,2.516,0,0,0,.95-1.258.786.786,0,0,0-.5-.83,1.956,1.956,0,0,0-1.887.591,2.9,2.9,0,0,0-1.038,1.811.843.843,0,0,0,1.333.73Z" fill="#263238"/><path d="M162.708,118.707a13.9,13.9,0,0,1-1.522.233,2.516,2.516,0,0,1-1.6-.057.811.811,0,0,1-.34-.912,1.981,1.981,0,0,1,1.66-1.113,2.893,2.893,0,0,1,2.057.321.849.849,0,0,1-.252,1.528Z" fill="#263238"/><path d="M158.343,135.462a1.8,1.8,0,0,0,1.17.245,3.1,3.1,0,0,0,1.038-.767.044.044,0,0,1,.069.038,1.572,1.572,0,0,1-1.107,1.164,1.258,1.258,0,0,1-1.258-.585C158.223,135.5,158.292,135.443,158.343,135.462Z" fill="#263238"/><path d="M158.1,131.782a3.962,3.962,0,0,0,3.145.572,4.957,4.957,0,0,0,1.333-.5c.082-.044.164-.088.239-.138s.138-.082.214-.138a.277.277,0,0,0,.113-.327h0a.521.521,0,0,0-.057-.1h0l-.044-.088c-.327-.836-.943-2.05-.943-2.05.365,0,2.2.05,1.981-.371a59.655,59.655,0,0,0-6.157-10.4.113.113,0,0,0-.189.113c1.541,3.4,3.673,6.5,5.271,9.893a6.918,6.918,0,0,0-1.943.22c-.1.082,1.258,2.327,1.352,2.717a.057.057,0,0,1,0,.038,5.446,5.446,0,0,1-4.27.447C158.047,131.613,158,131.719,158.1,131.782Z" fill="#263238"/><path d="M161.89,131.644a4.7,4.7,0,0,1-1.151,2.082,2.151,2.151,0,0,1-1.151.585c-.95.138-1.308-.629-1.44-1.371a5.233,5.233,0,0,1-.057-1.195A6.063,6.063,0,0,0,161.89,131.644Z" fill="#263238"/><path d="M160.739,133.726a2.151,2.151,0,0,1-1.151.585c-.95.138-1.308-.629-1.44-1.371A2.177,2.177,0,0,1,160.739,133.726Z" fill="#ff97b8"/><path d="M160.154,111.442a9.434,9.434,0,0,1-2.239,2.359c-4.931,3.843-16.837,4.094-16.837,4.094a40.642,40.642,0,0,1,2.648,11.761,3.679,3.679,0,0,1-1.95,3.327s-.717-.723-1.736-1.887c-1.849-4.189-3.1-8.359-3.025-10.906.252-9.082,10.906-15.724,18.868-12.654C157.135,108.015,158.626,109.436,160.154,111.442Z" fill="#263238"/><path d="M159.362,113.769a19.7,19.7,0,0,1-7.642,3.3,40.146,40.146,0,0,1-8.673.868c-1.692,0-3.39-.063-5.082-.157a.041.041,0,0,0,0,.082,44.025,44.025,0,0,0,9.227.585,22.057,22.057,0,0,0,8.264-2.094,18.547,18.547,0,0,0,3.943-2.566Z" fill="#263238"/><path d="M144.412,132.663s-5.245-4.176-7.245-2.151,3.031,8.805,6.145,9.044a2.975,2.975,0,0,0,3.371-2.667Z" fill="#eb9481"/><path d="M138.657,132.424a.044.044,0,0,0,0,.082c2.2.214,3.774,1.73,5.069,3.409a1.645,1.645,0,0,0-2.484.264c-.044.057,0,.12.082.094a1.824,1.824,0,0,1,2.113.038,8.693,8.693,0,0,1,1.39,1.289c.145.145.434-.044.308-.226l-.031-.038C144.412,134.814,141.424,131.877,138.657,132.424Z" fill="#263238"/><path d="M136.3,125.9c-.2-.063-7.547-3.528-8.415-3.736s-5.176,2.818-7.069,1.258-4.258-5.478-2.793-8.541,3.774-5.151,3.774-5.51-4.076-5.805-1.566-9.679,10.164-1.509,10.428-1.654-.088-4.277,2.44-5.855,7.233,1.164,7.868.755,3.981-2.736,7.786-2.145,3.535,6.742,3.145,7.818,3.943,7.6,3.943,7.6Z" fill="#ebebeb"/><path d="M137.185,121.946a3.56,3.56,0,0,1-1.107-.459c-.371-.195-.736-.384-1.107-.56a16.172,16.172,0,0,0-2.327-.868,3.145,3.145,0,0,0-2-.126,1.44,1.44,0,0,0-.667.541,1.421,1.421,0,0,0-.27.5,4.471,4.471,0,0,0,0,.5c0,.05.082.05.075,0a.881.881,0,0,1,.113-.629,2.427,2.427,0,0,1,.34-.377,1.447,1.447,0,0,1,1-.327,6.019,6.019,0,0,1,2,.541l2.013.742a5.289,5.289,0,0,0,1.925.629C137.229,122.015,137.242,121.952,137.185,121.946Z" fill="#c7c7c7"/><path d="M138.562,121.027,134,118.751a22.692,22.692,0,0,1-4.434-2.642c-.038-.031-.088,0-.05.057a22.887,22.887,0,0,0,4.2,2.987,32.077,32.077,0,0,0,4.818,1.962C138.575,121.128,138.606,121.053,138.562,121.027Z" fill="#c7c7c7"/><path d="M140.845,116.77c-1.182-.849-2.453-1.585-3.711-2.321a14.4,14.4,0,0,0-3.522-1.5.038.038,0,0,0,0,.069,18.585,18.585,0,0,1,3.4,1.887c1.214.73,2.44,1.478,3.717,2.094a.138.138,0,0,0,.113-.226Z" fill="#c7c7c7"/><path d="M140.254,102.964a1.484,1.484,0,0,0-1.654,1.591,6.149,6.149,0,0,0,1.484,3,14.523,14.523,0,0,0,2.4,2.516,14.843,14.843,0,0,0,3.34,2.025c.05,0,.082-.038.038-.063a17.239,17.239,0,0,1-4.61-4.006,16,16,0,0,1-1.7-2.516c-.4-.742-.673-2.17.5-2.365s2,.874,2.969,1.22c0,0,.031,0,0-.038C142.053,103.952,141.361,103.071,140.254,102.964Z" fill="#c7c7c7"/><path d="M148.751,97.719a7.654,7.654,0,0,0,.711,4.931,13.364,13.364,0,0,0,1.484,2.384,14.63,14.63,0,0,0,1.887,2.233.038.038,0,1,0,.063-.044c-.459-.8-1.094-1.491-1.566-2.277a17.892,17.892,0,0,1-1.258-2.459,16.655,16.655,0,0,1-.755-2.321,11.082,11.082,0,0,1-.34-2.447.113.113,0,1,0-.226,0Z" fill="#c7c7c7"/><path d="M148.141,105.147A30.955,30.955,0,0,0,145.085,102a.113.113,0,1,0-.157.164c.981,1.063,1.887,2.2,2.824,3.321s1.755,2.3,2.73,3.352c.031.031.075,0,.057-.05a16.49,16.49,0,0,0-2.4-3.642Z" fill="#c7c7c7"/><path d="M138.877,128.487c-.755-.805,4.245-13.837,19.6-19.5.717-.264-3.006-5.208-4-5.289s-20.447,8.61-20.56,21.717C133.908,126.323,138.877,128.487,138.877,128.487Z" fill="#dbdbdb"/><path d="M158.745,154.412c.459.063,1.5,1.849,1.748,2.245s17.447,76.4,17.774,79.681,6.642,31.592,6.642,31.592H112.958s6.742-44.07,6.742-44.818c0,0-8.585-.748-8.491-1s1.428-6.063,1.428-6.063l8.308-1S133.2,172.1,134.028,168.28s4.12-16.447,5.277-18.239a15.1,15.1,0,0,1,2.082-.629s.566,16.78.679,16.78,16.724,2.409,16.724,2.409Z" fill="#ebebeb"/><path d="M157.009,55.435s25.724-2.3,43.4,5.2c13.139,5.572,25.082,20.818,16.56,26.944C203.708,97.1,160.016,69.6,160.016,69.6s-27.114.409-48.819-6.805S68.429,33.347,93.335,29.139,157.009,55.435,157.009,55.435Z" fill="#fca311"/><path d="M83.649,43.026h0c4.145,7.491,15.724,15.837,27.541,19.755,21.7,7.208,48.819,6.805,48.819,6.805-7.617-5.032-27.95-23.724-48.6-31.818S80.951,33.472,83.649,43.026Z" opacity="0.1"/><path d="M157.016,55.435c12.717,9.723,43.535,29.24,53.416,23.824,4.51-2.472,2.868-7.661-.252-12.579a39.573,39.573,0,0,0-9.774-6.076C182.733,53.127,157.016,55.435,157.016,55.435Z" opacity="0.1"/><path d="M19.29,267.93l34.485-.151,34.491-.057,68.97-.107,68.97.107,34.491.05,34.485.157-34.485.151-34.491.057-68.97.107-68.97-.107-34.491-.057Z" fill="#263238"/><ellipse cx="103.612" cy="8.673" rx="103.612" ry="8.673" transform="translate(53.624 278.842)" fill="#ebebeb"/><path d="M76.354,237.552V264.42c0,1.918-.717,3.491-1.591,3.491H54.089c-.874,0-1.579-1.553-1.579-3.472V237.552c0-1.925.7-3.478,1.579-3.478h.956v-2.516h18.78v2.516h.956C75.637,234.074,76.354,235.627,76.354,237.552Z" fill="#fca311"/><rect width="20.107" height="4.522" transform="translate(54.353 227.426)" fill="#37474f"/><rect width="23.862" height="16.975" transform="translate(52.492 243.244)" fill="#ebebeb"/><path d="M49.837,263.175c0,3.522-1.321,4.736-1.994,4.736H36.378c-.679,0-2.006-1.208-2.013-4.73,0-4.182,2.987-6.686,2.987-8.969,0-1.491-1.44-6.113-.824-6.113h11.1c.629,0-.805,4.623-.805,6.107C46.831,256.5,49.831,259,49.837,263.175Z" fill="#ebebeb"/><path d="M37.4,245h9.365a1.352,1.352,0,0,1,1.352,1.352v2.748a.094.094,0,0,1-.094.094H36.139a.094.094,0,0,1-.094-.094v-2.748A1.352,1.352,0,0,1,37.4,245Z" transform="translate(-0.358 0.063) rotate(-0.08)" fill="#37474f"/><rect width="9.529" height="3.598" transform="translate(88.269 270.753) rotate(178.87)" fill="#a6a6a6"/><circle cx="11.069" cy="11.069" r="11.069" transform="matrix(0.699, -0.715, 0.715, 0.699, 78.584, 269.796)" fill="#c7c7c7"/><circle cx="9.503" cy="9.503" r="9.503" transform="matrix(0.079, -0.997, 0.997, 0.079, 84.011, 278.309)" fill="#dbdbdb"/><path d="M92.253,270.043a2.031,2.031,0,1,0,.272-1.537A2.038,2.038,0,0,0,92.253,270.043Z" fill="#a6a6a6"/><path d="M93.662,257.577c.7,0,.3-1.887-.528-2.4s-6.6.208-8.749,1.447c-2.516,1.44-5.535,6.6-6.2,9.252-.3,1.195-10.95-.371-16.981-.22-8.025.195-16.158,3.145-19.592,4.4a1.488,1.488,0,0,0-.176,2.516c1.956,1.283,13.189,1.553,20.2,1.013s15.472-2.623,16.246-2.365,1.7,7.006,6.692,9.434a1.522,1.522,0,0,0,2.17-1.3c-.145-.327-6.4-4.73-4.214-12.994A11.856,11.856,0,0,1,93.662,257.577Z" fill="#fca311"/><path d="M93.662,257.577c.7,0,.3-1.887-.528-2.4s-6.6.208-8.749,1.447c-2.516,1.44-5.535,6.6-6.2,9.252-.3,1.195-10.95-.371-16.981-.22-8.025.195-16.158,3.145-19.592,4.4a1.488,1.488,0,0,0-.176,2.516c1.956,1.283,13.189,1.553,20.2,1.013s15.472-2.623,16.246-2.365,1.7,7.006,6.692,9.434a1.522,1.522,0,0,0,2.17-1.3c-.145-.327-6.4-4.73-4.214-12.994A11.856,11.856,0,0,1,93.662,257.577Z" opacity="0.1"/><rect width="57.687" height="14.025" transform="translate(106.323 277.515)" fill="#fca311"/><path d="M106.323,282.861v3.308h-4.34c-1.73,0-8.346,2.314-10.6,1.522C88.1,286.54,88.1,284.5,88.1,284.5s0-2.031,3.283-3.176c2.252-.792,8.868,1.516,10.6,1.516Z" fill="#fca311"/><path d="M106.323,282.861v3.308h-2.145l-.352-3.327Z" opacity="0.2"/><path d="M164.016,286.169v-3.327h4.34c1.73,0,8.346-2.308,10.6-1.516,3.283,1.145,3.283,3.182,3.283,3.182s0,2.031-3.283,3.182c-2.252.792-8.868-1.522-10.6-1.522Z" fill="#fca311"/><path d="M166.443,286.169h-2.428v-3.327h2.076Z" opacity="0.2"/><path d="M176.1,271.294c2.164,7.044,8.805,6.145,10.692,5.566s7.874-3.554,5.711-10.6-9.252-5.421-10.51-5.032C180.507,261.64,173.909,264.244,176.1,271.294Z" fill="#fca311"/><path d="M176.1,271.294c2.164,7.044,8.805,6.145,10.692,5.566s7.874-3.554,5.711-10.6-9.252-5.421-10.51-5.032C180.507,261.64,173.909,264.244,176.1,271.294Z" opacity="0.1"/><path d="M182.57,262.187s.289,2.654,4.943,1.069C187.513,263.257,184.368,259.9,182.57,262.187Z" fill="#37474f"/><path d="M183.022,263.288s2.189.145,1.566-3.843C184.582,259.445,181.425,261.514,183.022,263.288Z" fill="#37474f"/><path d="M182.84,262.584s-.761,2.057-4.151-.138C178.689,262.445,181.865,260.382,182.84,262.584Z" fill="#37474f"/><path d="M182.7,262.062s-2.038,1.723,1.887,4.7C184.57,266.76,185.595,262.269,182.7,262.062Z" fill="#37474f"/><path d="M182.481,262.445s-2.937-.824-2.554,4.2C179.928,266.672,184.425,265.081,182.481,262.445Z" fill="#37474f"/><path d="M182.978,263.062a5.264,5.264,0,0,0-1.83-4.484A1.679,1.679,0,0,0,179.6,259.9s2.516,1.4,2.679,3.686l.585-.352" fill="#37474f"/><path d="M192.538,284.653c7.032,2.226,10.063-3.736,10.648-5.616s1.553-8.5-5.478-10.723-9.717,4.535-10.113,5.793C187.148,275.515,185.538,282.433,192.538,284.653Z" fill="#fca311"/><path d="M188.739,274.137s2.346,1.258,3.686-3.465C192.456,270.672,187.884,271.357,188.739,274.137Z" fill="#37474f"/><path d="M189.9,274.4s1.359-1.723-2.277-3.478C187.626,270.917,187.532,274.691,189.9,274.4Z" fill="#37474f"/><path d="M189.217,274.137s1.258,1.792-2.472,3.333C186.746,277.471,186.878,273.7,189.217,274.137Z" fill="#37474f"/><path d="M188.683,273.961s.264,2.654,4.931,1.126C193.639,275.087,190.532,271.7,188.683,273.961Z" fill="#37474f"/><path d="M188.9,274.357s-2.352,1.943,2.006,4.484C190.909,278.842,192.173,274.25,188.9,274.357Z" fill="#37474f"/><path d="M189.689,274.3a5.252,5.252,0,0,0-4.73-1.044,1.692,1.692,0,0,0,.208,2.025s2.579-1.258,4.554-.113l.044-.679" fill="#37474f"/><path d="M225.08,279.678c-4.7,5.66-10.472,2.314-11.994,1.05s-5.912-6.289-1.214-11.95,10.623-1.465,11.635-.629C224.652,269.074,229.778,273.993,225.08,279.678Z" fill="#fca311"/><path d="M222.564,268.779s-1.258,2.34-4.975-.912C217.614,267.867,221.778,265.98,222.564,268.779Z" fill="#37474f"/><path d="M221.727,269.621s-2.076-.7,0-4.151C221.753,265.47,223.9,268.59,221.727,269.621Z" fill="#37474f"/><path d="M222.161,269.043s-.082,2.189,3.887,1.459C226.048,270.5,223.9,267.4,222.161,269.043Z" fill="#37474f"/><path d="M222.495,268.615s1.22,2.371-3.535,3.623C218.96,272.238,219.734,267.7,222.495,268.615Z" fill="#37474f"/><path d="M222.545,269.049s3.032.365.748,4.855C223.275,273.9,219.74,270.735,222.545,269.049Z" fill="#37474f"/><path d="M221.853,269.433a5.264,5.264,0,0,1,3.409-3.447,1.692,1.692,0,0,1,.925,1.818s-2.849.333-3.887,2.371l-.409-.547" fill="#37474f"/><path d="M278.42,259.194l-2.415-1.956a40.4,40.4,0,0,0,4.289-6.145c-.358-2.321-2.516-9.975-3.912-11.051H267.37v-3.094h9.189c4.4,0,6.818,13.837,6.837,13.956C283.465,251.464,283.653,252.734,278.42,259.194ZM280.307,251.017Z" fill="#ebebeb"/><path d="M262.735,279.691c-15.623,0-19.4-10.157-17.862-17.283s12.447-13.208,12.579-15.554,0-12.774-.56-13.485-4.132-2.094-5.1-2.094-.969-1.189,0-1.189h18.026c.969,0,.969,1.189,0,1.189s-1.579,1.195-1.748,2.459c-.126.881-.3,11.183-.044,13.12.314,2.3,11.032,8.434,12.579,15.554S278.351,279.691,262.735,279.691Z" fill="#ebebeb"/><path d="M262.345,277.282c-13.132,0-16.308-8.535-15.013-14.522s12.34-12.686,12.126-14.629c-.038-.384-.069-8-.088-8.805h6.547c0,.83.044,8.459.094,8.805.258,1.937,10.063,8.635,11.352,14.629S275.477,277.282,262.345,277.282Z" fill="#fca311"/></g></g></svg>